<svg width="64" height="65" viewBox="0 0 64 65" fill="none" xmlns="http://www.w3.org/2000/svg">
<path d="M40.3536 9.13059C40.4137 13.4719 40.7139 17.7612 41.0441 21.916C41.1081 22.7129 41.1721 23.5057 41.2362 24.2946C40.4406 24.4413 39.5341 24.6003 38.7267 24.7348C34.7044 25.4807 30.556 26.2909 26.4196 27.3518C24.4804 27.8501 22.5413 28.4035 20.6232 29.0333V29.1066L18.6631 29.6112C16.4778 30.4212 14.3016 31.3201 12.1343 32.3321C10.6247 33.0644 9.3814 34.2644 8.58232 35.7603C7.78323 37.2563 7.46939 38.9713 7.68574 40.66C7.68574 40.7211 7.68574 40.7854 7.70675 40.8496C7.97391 43.0874 8.67331 48.7403 8.93747 50.856C9.09356 46.5268 12.8848 44.7414 15.139 43.7968C16.697 43.1333 18.2669 42.5372 19.8458 41.9837C20.4461 41.78 21.0555 41.5761 21.6738 41.3724C23.607 40.7609 25.576 40.2411 27.5422 39.7765C31.5705 38.8317 35.632 38.1256 39.5972 37.5141C41.6984 37.1869 43.7546 36.8782 45.7747 36.5664L55.2783 35.2089L53.9725 25.8018C53.7475 23.732 53.5073 21.6225 53.2792 19.4763C52.8438 15.4132 52.4627 11.237 52.3306 7.03638L40.3536 9.13059Z" fill="#213466"/>
<path d="M34.1641 9.98076C30.9673 10.4271 27.8934 10.8979 25.0118 11.4666L24.7837 11.5094V11.65C24.9758 14.637 25.3299 17.7798 25.7322 21.0388C25.9873 23.1025 26.2575 25.2121 26.5187 27.3521L27.6474 39.7829C27.7405 41.8403 27.7764 43.904 27.7254 45.9615C27.6774 47.8326 27.5632 49.7006 27.3562 51.5563C27.0829 54.0174 26.0144 58.1661 21.7129 60.2481C23.592 59.3951 27.5453 58.3892 30.3038 57.7503L30.529 57.6922C31.3395 57.5057 32.0298 57.3529 32.5281 57.2489C35.8752 56.5396 38.6727 53.9776 39.132 50.523C39.4322 48.233 39.6123 45.9371 39.6963 43.638C39.7683 41.5866 39.7683 39.5383 39.7114 37.5022L38.8438 24.7228C38.7687 23.9158 38.6907 23.1116 38.6157 22.3138L41.0351 21.9224C40.7049 17.7676 40.4047 13.4783 40.3446 9.13696C38.2435 9.44268 36.1782 9.70867 34.1551 9.98687" fill="#8DD0B8"/>
</svg>
