<svg width="212" height="56" viewBox="0 0 212 56" fill="none" xmlns="http://www.w3.org/2000/svg">
<g clip-path="url(#clip0_26802_8927)">
<path d="M30.0608 1.92406C30.116 5.91262 30.3918 9.85344 30.6951 13.6707C30.7539 14.4028 30.8127 15.1312 30.8717 15.856C30.1407 15.9908 29.3079 16.1368 28.566 16.2604C24.8706 16.9457 21.0592 17.6901 17.2589 18.6648C15.4773 19.1226 13.6958 19.6311 11.9335 20.2097V20.277L10.1326 20.7406C8.12492 21.4848 6.12548 22.3107 4.1343 23.2404C2.74739 23.9133 1.60506 25.0158 0.87091 26.3901C0.136752 27.7645 -0.151589 29.3402 0.0471791 30.8917C0.0471791 30.9478 0.0471811 31.0069 0.0664861 31.0659C0.311935 33.1219 0.954515 38.3155 1.1972 40.2592C1.34061 36.2818 4.82378 34.6415 6.89491 33.7736C8.32624 33.164 9.76859 32.6164 11.2192 32.1079C11.7708 31.9207 12.3306 31.7334 12.8988 31.5462C14.6748 30.9844 16.4839 30.5068 18.2903 30.08C21.9913 29.212 25.7228 28.5632 29.3658 28.0014C31.2963 27.7008 33.1855 27.4172 35.0414 27.1307L43.7728 25.8835L42.5732 17.2407C42.3664 15.3391 42.1457 13.401 41.9362 11.4292C41.5362 7.69625 41.186 3.85935 41.0647 0L30.0608 1.92406Z" fill="#213466"/>
<path d="M24.3742 2.70502C21.4371 3.11512 18.613 3.54767 15.9655 4.07011L15.7559 4.10944V4.23865C15.9324 6.9829 16.2578 9.87038 16.6274 12.8646C16.8618 14.7606 17.11 16.6988 17.3499 18.6649L18.3869 30.0857C18.4725 31.976 18.5055 33.872 18.4586 35.7623C18.4145 37.4813 18.3096 39.1976 18.1194 40.9025C17.8684 43.1637 16.8867 46.9753 12.9346 48.8881C14.6611 48.1044 18.2931 47.1803 20.8275 46.5933L21.0345 46.5399C21.7791 46.3686 22.4133 46.2281 22.8711 46.1327C25.9462 45.4809 28.5165 43.1271 28.9384 39.9532C29.2142 37.8493 29.3797 35.7399 29.4569 33.6276C29.5231 31.7429 29.5231 29.861 29.4707 27.9903L28.6737 16.2492C28.6047 15.5078 28.533 14.769 28.4641 14.036L30.6869 13.6764C30.3835 9.85916 30.1077 5.91834 30.0526 1.92978C28.1221 2.21066 26.2247 2.45503 24.3659 2.71063" fill="#8DD0B8"/>
<path d="M56.1887 46.5455V16.4599H61.5885V28.6222L72.5207 16.4599H79.1864L68.2984 28.4088L79.4815 46.5455H72.8571L64.4181 32.6192L61.5885 35.7567V46.5455H56.1887Z" fill="#3D4B5C"/>
<path d="M88.8525 47.0621C87.0507 47.0621 85.5735 46.7681 84.4207 46.1801C83.3557 45.6738 82.4607 44.8589 81.8476 43.8376C81.2833 42.8621 80.9914 41.748 81.0037 40.6158C80.9819 39.6869 81.177 38.766 81.5731 37.9291C81.9692 37.092 82.5548 36.3628 83.2818 35.8015C84.8022 34.5674 87.0811 33.9514 90.1184 33.9532H95.4356V33.4363C95.4356 31.9759 95.0274 30.9009 94.2111 30.2119C93.3526 29.5113 92.2769 29.1458 91.1774 29.181C90.1662 29.1585 89.1699 29.4346 88.3093 29.976C87.9077 30.2347 87.5647 30.5773 87.3027 30.9812C87.0408 31.3849 86.8659 31.8408 86.7898 32.3184H81.5084C81.6207 30.8477 82.157 29.4435 83.0501 28.2822C83.958 27.1186 85.1414 26.209 86.4891 25.639C87.9862 25.0051 89.595 24.6907 91.216 24.7149C94.1982 24.7149 96.5469 25.4743 98.2624 26.9928C99.9778 28.5116 100.835 30.665 100.835 33.4533V46.5396H96.2381L95.7306 43.1017C95.1086 44.2508 94.2171 45.2255 93.1356 45.9386C92.0324 46.6876 90.6048 47.0621 88.8525 47.0621ZM90.0743 42.7646C91.6224 42.7646 92.8257 42.2487 93.6844 41.217C94.5687 40.123 95.1318 38.7968 95.3086 37.3912H90.7087C89.2745 37.3912 88.2477 37.6562 87.6281 38.1861C87.3349 38.419 87.0986 38.7174 86.9373 39.0585C86.7762 39.3995 86.6944 39.7739 86.6986 40.1524C86.6821 40.5285 86.7584 40.9027 86.9208 41.2409C87.0832 41.579 87.3264 41.8702 87.6281 42.0876C88.3506 42.5769 89.2077 42.818 90.0743 42.7759" fill="#3D4B5C"/>
<path d="M107.884 56L112.735 45.127H111.469L103.326 25.2263H109.191L115.057 40.2284L121.177 25.2263H126.916L113.623 56H107.884Z" fill="#3D4B5C"/>
<path d="M136.037 47.0621C134.237 47.0621 132.759 46.7681 131.605 46.1801C130.54 45.6738 129.645 44.8589 129.032 43.8376C128.469 42.8616 128.177 41.7479 128.188 40.6158C128.166 39.6869 128.361 38.766 128.757 37.9291C129.153 37.092 129.739 36.3628 130.466 35.8015C131.984 34.5674 134.263 33.9514 137.302 33.9532H142.619V33.4363C142.619 31.9759 142.212 30.9009 141.396 30.2119C140.536 29.5112 139.461 29.1455 138.361 29.181C137.348 29.1543 136.349 29.4274 135.485 29.9674C135.084 30.2268 134.741 30.5696 134.479 30.9733C134.217 31.3771 134.042 31.8325 133.965 32.31H128.69C128.803 30.8426 129.338 29.4414 130.229 28.2822C131.136 27.1186 132.32 26.209 133.668 25.639C135.165 25.0051 136.773 24.6907 138.395 24.7149C141.376 24.7149 143.725 25.4743 145.44 26.9928C147.157 28.5116 148.015 30.665 148.016 33.4533V46.5396H143.416L142.909 43.1017C142.288 44.2515 141.396 45.2263 140.314 45.9386C139.211 46.6876 137.783 47.0621 136.031 47.0621H136.037ZM137.256 42.7646C138.804 42.7646 140.006 42.2487 140.862 41.217C141.747 40.123 142.31 38.7968 142.488 37.3912H137.887C136.453 37.3912 135.426 37.6562 134.807 38.1861C134.514 38.4195 134.279 38.7181 134.118 39.0592C133.957 39.4001 133.876 39.7741 133.88 40.1524C133.863 40.5282 133.939 40.9023 134.101 41.2404C134.263 41.5786 134.505 41.8699 134.807 42.0876C135.53 42.5772 136.388 42.8184 137.256 42.7759" fill="#3D4B5C"/>
<path d="M153.166 46.5398V25.229H157.975L158.483 29.226C159.233 27.8198 160.353 26.6533 161.717 25.8565C163.08 25.0596 164.633 24.6635 166.204 24.7121V30.5292H164.685C163.604 30.5113 162.53 30.702 161.519 31.0911C160.597 31.4588 159.828 32.142 159.345 33.0235C158.823 33.941 158.564 35.2163 158.565 36.8493V46.5398H153.166Z" fill="#3D4B5C"/>
<path d="M179.539 47.0621C177.626 47.0925 175.741 46.6028 174.076 45.6436C172.47 44.7098 171.143 43.351 170.234 41.7112C169.266 39.9307 168.778 37.9205 168.822 35.8856C168.78 33.8491 169.274 31.8381 170.255 30.0629C171.175 28.4246 172.508 27.0668 174.117 26.1306C175.785 25.2 177.659 24.7122 179.561 24.7122C181.464 24.7122 183.336 25.2 185.004 26.1306C186.61 27.0645 187.936 28.4234 188.843 30.0629C189.773 31.8584 190.259 33.8575 190.259 35.887C190.259 37.9168 189.773 39.9158 188.843 41.7112C187.932 43.3549 186.596 44.7145 184.983 45.6436C183.323 46.5977 181.444 47.087 179.539 47.0621ZM179.539 42.287C180.228 42.2905 180.908 42.1494 181.541 41.8725C182.172 41.5955 182.742 41.1887 183.212 40.6776C184.253 39.6008 184.773 38.0026 184.773 35.8828C184.773 33.7631 184.253 32.1658 183.212 31.0909C182.742 30.5819 182.175 30.1763 181.545 29.899C180.916 29.6216 180.237 29.4787 179.551 29.4787C178.865 29.4787 178.186 29.6216 177.556 29.899C176.928 30.1763 176.361 30.5819 175.89 31.0909C174.86 32.1677 174.346 33.7651 174.349 35.8828C174.35 38.0008 174.864 39.599 175.89 40.6776C176.355 41.1895 176.919 41.5971 177.548 41.8741C178.177 42.1513 178.854 42.2919 179.539 42.287Z" fill="#3D4B5C"/>
<path d="M200.472 15.6003H195.068V46.5454H200.472V15.6003Z" fill="#3D4B5C"/>
<path d="M211.4 15.6003H205.997V46.5454H211.4V15.6003Z" fill="#3D4B5C"/>
</g>
<defs>
<clipPath id="clip0_26802_8927">
<rect width="211.4" height="56" fill="white"/>
</clipPath>
</defs>
</svg>
