<svg width="32" height="32" viewBox="0 0 32 32" fill="none" xmlns="http://www.w3.org/2000/svg">
<path d="M10.0664 4C9.29307 4 8.66667 4.61385 8.66667 5.36719V15.3333H12V14.7266C12 13.2199 13.2264 12 14.7331 12H23.3333V5.36719C23.3333 4.61385 22.7069 4 21.9336 4H10.0664ZM12.6667 6.66667H14C14.368 6.66667 14.6667 6.96533 14.6667 7.33333V8.66667C14.6667 9.03467 14.368 9.33333 14 9.33333H12.6667C12.2987 9.33333 12 9.03467 12 8.66667V7.33333C12 6.96533 12.2987 6.66667 12.6667 6.66667ZM18 6.66667H19.3333C19.7013 6.66667 20 6.96533 20 7.33333V8.66667C20 9.03467 19.7013 9.33333 19.3333 9.33333H18C17.632 9.33333 17.3333 9.03467 17.3333 8.66667V7.33333C17.3333 6.96533 17.632 6.66667 18 6.66667ZM14.7331 13.3333C13.9597 13.3333 13.3333 13.9599 13.3333 14.7266V27.9401C13.3333 28.7068 13.9597 29.3333 14.7331 29.3333H25.9336C26.7069 29.3333 27.3333 28.7068 27.3333 27.9401V14.7266C27.3333 13.9599 26.7069 13.3333 25.9336 13.3333H14.7331ZM17.3333 16H18.6667C19.0347 16 19.3333 16.2987 19.3333 16.6667V18C19.3333 18.368 19.0347 18.6667 18.6667 18.6667H17.3333C16.9653 18.6667 16.6667 18.368 16.6667 18V16.6667C16.6667 16.2987 16.9653 16 17.3333 16ZM22 16H23.3333C23.7013 16 24 16.2987 24 16.6667V18C24 18.368 23.7013 18.6667 23.3333 18.6667H22C21.632 18.6667 21.3333 18.368 21.3333 18V16.6667C21.3333 16.2987 21.632 16 22 16ZM5.33333 16.6667C4.6 16.6667 4 17.2667 4 18V28C4 28.7333 4.6 29.3333 5.33333 29.3333H12.3867C12.1401 28.9267 12 28.4468 12 27.9401V16.6667H5.33333ZM7.33333 19.3333H8.66667C9.03467 19.3333 9.33333 19.632 9.33333 20V21.3333C9.33333 21.7013 9.03467 22 8.66667 22H7.33333C6.96533 22 6.66667 21.7013 6.66667 21.3333V20C6.66667 19.632 6.96533 19.3333 7.33333 19.3333ZM17.3333 20H18.6667C19.0347 20 19.3333 20.2987 19.3333 20.6667V22C19.3333 22.368 19.0347 22.6667 18.6667 22.6667H17.3333C16.9653 22.6667 16.6667 22.368 16.6667 22V20.6667C16.6667 20.2987 16.9653 20 17.3333 20ZM22 20H23.3333C23.7013 20 24 20.2987 24 20.6667V22C24 22.368 23.7013 22.6667 23.3333 22.6667H22C21.632 22.6667 21.3333 22.368 21.3333 22V20.6667C21.3333 20.2987 21.632 20 22 20ZM7.33333 24H8.66667C9.03467 24 9.33333 24.2987 9.33333 24.6667V26C9.33333 26.368 9.03467 26.6667 8.66667 26.6667H7.33333C6.96533 26.6667 6.66667 26.368 6.66667 26V24.6667C6.66667 24.2987 6.96533 24 7.33333 24ZM17.3333 24H18.6667C19.0347 24 19.3333 24.2987 19.3333 24.6667V26C19.3333 26.368 19.0347 26.6667 18.6667 26.6667H17.3333C16.9653 26.6667 16.6667 26.368 16.6667 26V24.6667C16.6667 24.2987 16.9653 24 17.3333 24ZM22 24H23.3333C23.7013 24 24 24.2987 24 24.6667V26C24 26.368 23.7013 26.6667 23.3333 26.6667H22C21.632 26.6667 21.3333 26.368 21.3333 26V24.6667C21.3333 24.2987 21.632 24 22 24Z" fill="#14B8A6"/>
</svg>
