<svg width="28" height="25" viewBox="0 0 28 25" fill="none" xmlns="http://www.w3.org/2000/svg">
<path d="M12.4813 1.02371C10.2251 1.39246 8.3501 2.3737 6.76885 4.01746C5.48135 5.34871 4.65635 6.88621 4.2126 8.77371C4.04385 9.47996 4.0376 9.60496 4.0376 10.93C4.0376 12.255 4.04385 12.38 4.2126 13.0862C4.68135 15.0925 5.5001 16.5675 6.93135 17.9987C8.4001 19.4612 9.9501 20.305 12.0188 20.755C12.5688 20.8737 12.8438 20.8925 14.0313 20.8925C15.3188 20.8925 15.4563 20.88 16.1563 20.7175C18.1563 20.2487 19.6376 19.43 21.0688 17.9987C22.5251 16.5362 23.3813 14.9737 23.8251 12.93C23.9438 12.3612 23.9626 12.0987 23.9626 10.93C23.9626 9.76121 23.9438 9.49871 23.8251 8.92996C23.3813 6.88621 22.5251 5.32371 21.0688 3.86121C19.6313 2.42996 18.1313 1.59871 16.1563 1.14871C15.5126 0.998705 15.2438 0.973705 14.2188 0.954956C13.3938 0.942455 12.8626 0.961206 12.4813 1.02371ZM10.5063 13.6362C10.6251 13.7175 10.8626 13.8862 11.0376 14.0112C11.8813 14.6175 12.8876 14.93 14.0001 14.93C15.1126 14.93 16.1188 14.6175 16.9626 14.0112C17.6501 13.5175 17.7001 13.4925 17.9938 13.4925C18.7376 13.4925 19.2063 14.33 18.8001 14.93C18.4751 15.405 17.1938 16.1987 16.2251 16.5237C15.4688 16.7737 14.8563 16.8737 14.0001 16.8737C12.4501 16.8737 10.9813 16.3862 9.76885 15.4612C9.2251 15.0487 9.0626 14.8112 9.0626 14.4362C9.0626 13.6862 9.9001 13.2237 10.5063 13.6362Z" fill="#14B8A6"/>
<path d="M2.05 6.54868C1.14375 6.84243 0.36875 7.63618 0.1 8.54868C0.01875 8.82993 0 9.25493 0 10.9362C0 12.7674 0.0125 13.0237 0.11875 13.3612C0.40625 14.2799 1.19375 15.0612 2.11875 15.3299C2.35 15.3987 2.7125 15.4299 3.23125 15.4299C3.65625 15.4299 4 15.4174 4 15.4049C4 15.3924 3.91875 15.1924 3.825 14.9549C3.5875 14.3862 3.4125 13.7924 3.24375 12.9924C3.11875 12.4174 3.1 12.1549 3.1 10.9299C3.1 9.70493 3.11875 9.44243 3.24375 8.86743C3.4125 8.06743 3.5875 7.47368 3.825 6.90493C3.91875 6.66743 4 6.46743 4 6.45493C4 6.44243 3.64375 6.42993 3.20625 6.43618C2.6125 6.43618 2.3125 6.46743 2.05 6.54868Z" fill="#14B8A6"/>
<path d="M24.0312 6.53615C24.4187 7.46115 24.7687 8.72365 24.8749 9.6174C24.9062 9.9049 24.9374 10.4987 24.9374 10.9299C24.9374 11.3612 24.9062 11.9549 24.8749 12.2424C24.7874 12.9612 24.4812 14.1674 24.2187 14.8424C24.0999 15.1487 23.9999 15.4049 23.9999 15.4112C23.9999 15.4237 24.3687 15.4299 24.8124 15.4299C25.2624 15.4299 25.6249 15.4424 25.6249 15.4487C25.6249 15.4612 25.5687 15.6549 25.4937 15.8737C24.7687 18.0862 23.2249 19.9424 20.9687 21.3049C19.3812 22.2612 17.6437 22.7924 15.6187 22.9362C14.5562 23.0049 14.3812 23.0674 14.1437 23.4299C13.9437 23.7174 13.9437 24.2674 14.1437 24.5549C14.3999 24.9424 14.5999 25.0112 15.4249 24.9987C18.1937 24.9612 21.0624 23.9424 23.3749 22.1924C24.0249 21.6924 25.1312 20.6174 25.5999 20.0237C26.8187 18.4549 27.6062 16.6174 27.9062 14.6299C27.9749 14.1737 27.9999 13.3924 27.9999 11.4487C27.9999 9.09865 27.9874 8.84865 27.8812 8.49865C27.5937 7.5799 26.8062 6.79865 25.8812 6.5299C25.6499 6.46115 25.2874 6.4299 24.7624 6.4299C24.0499 6.4299 23.9874 6.43615 24.0312 6.53615Z" fill="#14B8A6"/>
<path d="M9.95 23.0549C9.65 23.2424 9.5 23.5237 9.5 23.9299C9.5 24.3362 9.65 24.6174 9.95 24.8049C10.1375 24.9174 10.2688 24.9299 11.25 24.9299C12.2313 24.9299 12.3625 24.9174 12.55 24.8049C12.85 24.6174 13 24.3362 13 23.9299C13 23.5237 12.85 23.2424 12.55 23.0549C12.3625 22.9424 12.2313 22.9299 11.25 22.9299C10.2688 22.9299 10.1375 22.9424 9.95 23.0549Z" fill="#14B8A6"/>
</svg>
