<svg width="32" height="33" viewBox="0 0 32 33" fill="none" xmlns="http://www.w3.org/2000/svg">
<path d="M10.3998 3.60815H21.5998C25.8665 3.60815 29.3332 7.07482 29.3332 11.3415V22.5415C29.3332 24.5925 28.5184 26.5595 27.0681 28.0098C25.6178 29.4601 23.6508 30.2748 21.5998 30.2748H10.3998C6.13317 30.2748 2.6665 26.8082 2.6665 22.5415V11.3415C2.6665 9.29048 3.48126 7.32348 4.93155 5.8732C6.38183 4.42291 8.34883 3.60815 10.3998 3.60815ZM10.1332 6.27482C8.86013 6.27482 7.63923 6.78053 6.73906 7.68071C5.83888 8.58088 5.33317 9.80178 5.33317 11.0748V22.8082C5.33317 25.4615 7.47984 27.6082 10.1332 27.6082H21.8665C23.1395 27.6082 24.3604 27.1024 25.2606 26.2023C26.1608 25.3021 26.6665 24.0812 26.6665 22.8082V11.0748C26.6665 8.42149 24.5198 6.27482 21.8665 6.27482H10.1332ZM22.9998 8.27482C23.4419 8.27482 23.8658 8.45042 24.1784 8.76298C24.4909 9.07554 24.6665 9.49946 24.6665 9.94149C24.6665 10.3835 24.4909 10.8074 24.1784 11.12C23.8658 11.4326 23.4419 11.6082 22.9998 11.6082C22.5578 11.6082 22.1339 11.4326 21.8213 11.12C21.5088 10.8074 21.3332 10.3835 21.3332 9.94149C21.3332 9.49946 21.5088 9.07554 21.8213 8.76298C22.1339 8.45042 22.5578 8.27482 22.9998 8.27482ZM15.9998 10.2748C17.7679 10.2748 19.4636 10.9772 20.7139 12.2274C21.9641 13.4777 22.6665 15.1734 22.6665 16.9415C22.6665 18.7096 21.9641 20.4053 20.7139 21.6555C19.4636 22.9058 17.7679 23.6082 15.9998 23.6082C14.2317 23.6082 12.536 22.9058 11.2858 21.6555C10.0355 20.4053 9.33317 18.7096 9.33317 16.9415C9.33317 15.1734 10.0355 13.4777 11.2858 12.2274C12.536 10.9772 14.2317 10.2748 15.9998 10.2748ZM15.9998 12.9415C14.939 12.9415 13.9216 13.3629 13.1714 14.1131C12.4213 14.8632 11.9998 15.8806 11.9998 16.9415C11.9998 18.0024 12.4213 19.0198 13.1714 19.7699C13.9216 20.5201 14.939 20.9415 15.9998 20.9415C17.0607 20.9415 18.0781 20.5201 18.8283 19.7699C19.5784 19.0198 19.9998 18.0024 19.9998 16.9415C19.9998 15.8806 19.5784 14.8632 18.8283 14.1131C18.0781 13.3629 17.0607 12.9415 15.9998 12.9415Z" fill="#4B5563"/>
</svg>
