<svg width="24" height="24" viewBox="0 0 24 24" fill="none" xmlns="http://www.w3.org/2000/svg">
<path d="M14.8359 0.0515623C14.7328 0.0749998 14.475 0.182812 14.2641 0.285937C13.4109 0.707812 12.7828 1.60781 12.7172 2.51719L12.6891 2.85937H11.9906H11.2969L11.3063 3.92344L11.3203 4.99219L11.625 5.025C12.7125 5.13281 13.7156 6.01406 13.9922 7.10156C14.0813 7.45781 14.0813 8.10469 13.9922 8.46094C13.7063 9.55781 12.7125 10.4297 11.625 10.5375L11.3203 10.5703L11.3063 11.6344L11.2969 12.7031H13.2422C14.3109 12.7031 15.1875 12.7078 15.1875 12.7172C15.1875 12.7266 15.1031 12.9703 15 13.2609C14.8453 13.6875 14.8125 13.8469 14.8125 14.1234C14.8125 14.6953 15.075 15.1219 15.5719 15.3703C15.8156 15.4969 15.9094 15.5156 16.2188 15.5156C16.5281 15.5156 16.6219 15.4969 16.8656 15.3703C17.3625 15.1219 17.625 14.6953 17.625 14.1234C17.625 13.8469 17.5922 13.6875 17.4375 13.2609C17.3344 12.9703 17.25 12.7266 17.25 12.7172C17.25 12.7078 18.1266 12.7031 19.1953 12.7031H21.1406V12.0047V11.3109L21.4594 11.2875C22.5141 11.2078 23.4844 10.4437 23.8688 9.39375C23.9906 9.05156 24.0375 8.26406 23.9531 7.87969C23.7094 6.73594 22.6219 5.77031 21.4828 5.68594L21.1406 5.65781V4.26094V2.85937H19.7391H18.3422L18.3141 2.51719C18.225 1.39687 17.3438 0.365624 16.2188 0.0703115C15.9328 -0.00468826 15.1313 -0.0140629 14.8359 0.0515623Z" fill="#14B8A6"/>
<path d="M9.39844 2.91562C7.45781 3.13125 5.475 3.96094 3.91875 5.20312C2.14219 6.61875 0.825 8.65312 0.28125 10.8234C0.13125 11.4094 0 12.2109 0 12.5156V12.7031H1.10156H2.20312V12.4734C2.20312 12.1453 2.4 11.5594 2.625 11.2172C2.84063 10.8891 3.2625 10.4812 3.57188 10.2984C4.44844 9.7875 5.61563 9.81094 6.45469 10.3594C7.19063 10.8422 7.73438 11.7562 7.73438 12.5016V12.7031H8.8125H9.89062V10.7578C9.89062 9.68906 9.89531 8.8125 9.90469 8.8125C9.91406 8.8125 10.1625 8.89687 10.4578 9.00469C10.9453 9.17812 11.025 9.19687 11.3438 9.17812C11.8969 9.14531 12.3469 8.85469 12.5813 8.37656C12.7359 8.07187 12.75 7.5375 12.6141 7.2375C12.4781 6.9375 12.1969 6.65625 11.8828 6.50625C11.4609 6.30937 11.1234 6.32344 10.4484 6.5625C10.1578 6.66562 9.91406 6.75 9.90469 6.75C9.89531 6.75 9.89062 5.87344 9.89062 4.80469C9.89062 3.27656 9.87656 2.85938 9.83438 2.86406C9.80156 2.86875 9.60469 2.89219 9.39844 2.91562Z" fill="#14B8A6"/>
<path d="M4.32188 11.4422C3.825 11.6906 3.5625 12.1172 3.5625 12.6891C3.5625 12.9656 3.59531 13.125 3.75 13.5516C3.85313 13.8422 3.9375 14.0859 3.9375 14.0953C3.9375 14.1047 3.05156 14.1094 1.96875 14.1094H0V14.2969C0 14.4 0.0328125 14.7 0.0703125 14.9672C0.529688 18.0141 2.33906 20.7609 4.99219 22.4297C5.84063 22.9641 6.96094 23.4516 7.92188 23.7C8.44688 23.8359 9.40781 24 9.69375 24H9.89062L9.88125 22.9078L9.86719 21.8203L9.5625 21.7875C8.47969 21.6797 7.47188 20.7937 7.19531 19.7109C7.09219 19.3031 7.10156 18.6422 7.22344 18.2531C7.54688 17.1937 8.50781 16.3781 9.5625 16.275L9.86719 16.2422L9.88125 15.1734L9.89062 14.1094H7.94531C6.87656 14.1094 6 14.1047 6 14.0953C6 14.0859 6.08438 13.8422 6.1875 13.5516C6.43594 12.8578 6.44531 12.4875 6.22969 12.0562C5.98125 11.55 5.55938 11.2969 4.96406 11.2969C4.65938 11.2969 4.56563 11.3156 4.32188 11.4422Z" fill="#14B8A6"/>
<path d="M11.2969 16.0547C11.2969 17.1234 11.2922 18 11.2828 18C11.2734 18 11.0297 17.9156 10.7391 17.8125C10.0641 17.5734 9.72656 17.5594 9.30469 17.7562C8.77031 18.0141 8.48438 18.45 8.48438 19.0312C8.48438 19.6125 8.77031 20.0484 9.30469 20.3062C9.72656 20.5031 10.0641 20.4891 10.7391 20.25C11.0297 20.1469 11.2734 20.0625 11.2828 20.0625C11.2922 20.0625 11.2969 20.9484 11.2969 22.0312V24H11.4984C11.7797 24 12.7406 23.8359 13.2844 23.6953C15.0516 23.2359 16.8703 22.1625 18.1453 20.8266C19.8469 19.0453 20.8594 16.8281 21.1125 14.3531L21.1359 14.1094H20.0625H18.9844V14.3109C18.9844 15.0562 18.4359 15.9703 17.7047 16.4531C16.8656 17.0016 15.6984 17.025 14.8219 16.5141C14.5125 16.3312 14.0906 15.9234 13.875 15.5953C13.65 15.2531 13.4531 14.6672 13.4531 14.3391V14.1094H12.375H11.2969V16.0547Z" fill="#14B8A6"/>
</svg>
