<svg width="32" height="33" viewBox="0 0 32 33" fill="none" xmlns="http://www.w3.org/2000/svg">
<path d="M3 5.92133C3 4.89271 3.85475 4.05908 4.90937 4.05908H27.0906C28.1453 4.05908 29 4.89271 29 5.92133V28.1968C29 29.2255 28.1453 30.0591 27.0906 30.0591H4.90937C3.85475 30.0591 3 29.2255 3 28.1968V5.92133ZM11.0324 25.8243V14.0837H7.13075V25.8243H11.0324ZM9.08238 12.4798C10.4425 12.4798 11.2891 11.5796 11.2891 10.4518C11.2647 9.29971 10.4441 8.42383 9.10838 8.42383C7.77262 8.42383 6.9 9.30133 6.9 10.4518C6.9 11.5796 7.74662 12.4798 9.05638 12.4798H9.08238ZM17.0579 25.8243V19.2675C17.0579 18.9165 17.0839 18.5655 17.1879 18.3152C17.469 17.6148 18.1109 16.8885 19.1899 16.8885C20.602 16.8885 21.1659 17.9642 21.1659 19.5437V25.8243H25.0675V19.0903C25.0675 15.4828 23.1435 13.8058 20.576 13.8058C18.5057 13.8058 17.5779 14.9433 17.0579 15.7445V15.7851H17.0319C17.0405 15.7715 17.0492 15.758 17.0579 15.7445V14.0837H13.1579C13.2066 15.1855 13.1579 25.8243 13.1579 25.8243H17.0579Z" fill="#4B5563"/>
</svg>
