<svg width="32" height="32" viewBox="0 0 32 32" fill="none" xmlns="http://www.w3.org/2000/svg">
<path d="M11.6667 2.66666C10.4167 2.66666 9.39327 3.65461 9.33594 4.89061C8.85019 5.12118 8.45767 5.51474 8.22656 5.99999H7C6.86749 5.99812 6.73593 6.0226 6.61296 6.07201C6.48999 6.12142 6.37807 6.19479 6.2837 6.28783C6.18933 6.38087 6.11439 6.49175 6.06325 6.614C6.0121 6.73626 5.98576 6.86746 5.98576 6.99999C5.98576 7.13251 6.0121 7.26372 6.06325 7.38598C6.11439 7.50823 6.18933 7.61911 6.2837 7.71215C6.37807 7.80519 6.48999 7.87855 6.61296 7.92797C6.73593 7.97738 6.86749 8.00186 7 7.99999H9.33333C9.89767 7.99999 10.3333 8.43566 10.3333 8.99999C10.3333 9.07787 10.3231 9.15096 10.3086 9.22265C10.299 9.26702 10.2846 9.30982 10.2695 9.35155C10.263 9.37073 10.2564 9.38998 10.2487 9.40884C10.0962 9.76111 9.7506 9.99999 9.33333 9.99999H7C6.75453 9.99709 6.51657 10.0846 6.33143 10.2458C6.14629 10.407 6.02691 10.6307 5.99603 10.8742C5.96514 11.1177 6.02491 11.3641 6.16395 11.5664C6.30298 11.7688 6.51158 11.9129 6.75 11.9713C5.58847 12.8646 4.58286 14.1295 4.67318 16.2604C4.71384 17.2251 5.05363 18.1062 5.59896 18.8242C6.39896 17.1662 8.93118 16.4473 11.5898 15.6966C15.4198 14.6153 19.3631 13.4943 19.9258 9.90233C19.9625 9.60033 19.9883 9.28905 19.9883 8.95572C19.9876 5.54639 16.8513 2.66666 13.1393 2.66666H11.6667ZM19.6849 13.3177C17.8142 15.3144 14.6705 16.2118 11.9505 16.9792C9.33287 17.7182 7.05642 18.3675 6.72005 19.6654C6.68335 19.7731 6.6653 19.8862 6.66667 20V20.7995L5.33333 24H4.33333C4.20082 23.9981 4.06926 24.0226 3.94629 24.072C3.82332 24.1214 3.7114 24.1948 3.61703 24.2878C3.52266 24.3809 3.44773 24.4917 3.39658 24.614C3.34543 24.7363 3.31909 24.8675 3.31909 25C3.31909 25.1325 3.34543 25.2637 3.39658 25.386C3.44773 25.5082 3.52266 25.6191 3.61703 25.7121C3.7114 25.8052 3.82332 25.8786 3.94629 25.928C4.06926 25.9774 4.20082 26.0019 4.33333 26H6C6.08841 25.9999 6.17642 25.9881 6.26172 25.9648C6.70604 25.887 7.10815 25.6412 7.36328 25.2578L9.60807 21.8906C9.84988 21.5274 9.9815 21.1025 9.99479 20.6667H14C14 21.9273 14.4424 23.086 15.1771 24H13.6667C13.114 24 12.6667 24.448 12.6667 25C12.6667 25.552 13.114 26 13.6667 26H21.6667C22.2193 26 22.6667 25.552 22.6667 25V24.8229C22.8071 24.71 22.9394 24.5884 23.0677 24.4622C23.5854 25.3726 24.5539 26 25.6667 26C27.3117 26 28.6667 24.645 28.6667 23V21.6667C28.6685 21.5341 28.6441 21.4026 28.5946 21.2796C28.5452 21.1566 28.4719 21.0447 28.3788 20.9504C28.2858 20.856 28.1749 20.781 28.0527 20.7299C27.9304 20.6788 27.7992 20.6524 27.6667 20.6524C27.5341 20.6524 27.4029 20.6788 27.2807 20.7299C27.1584 20.781 27.0476 20.856 26.9545 20.9504C26.8615 21.0447 26.7881 21.1566 26.7387 21.2796C26.6893 21.4026 26.6648 21.5341 26.6667 21.6667V23C26.6667 23.5643 26.231 24 25.6667 24C25.1023 24 24.6667 23.5643 24.6667 23V21C24.667 20.9495 24.6635 20.899 24.6562 20.8489C24.6583 20.7878 24.6667 20.7283 24.6667 20.6667C24.6667 19.284 24.139 17.9719 23.181 16.9739C22.651 16.4219 20.8276 14.5137 19.6849 13.3177ZM4.33333 27.3333C4.20082 27.3314 4.06926 27.3559 3.94629 27.4053C3.82332 27.4548 3.7114 27.5281 3.61703 27.6212C3.52266 27.7142 3.44773 27.8251 3.39658 27.9473C3.34543 28.0696 3.31909 28.2008 3.31909 28.3333C3.31909 28.4658 3.34543 28.5971 3.39658 28.7193C3.44773 28.8416 3.52266 28.9524 3.61703 29.0455C3.7114 29.1385 3.82332 29.2119 3.94629 29.2613C4.06926 29.3107 4.20082 29.3352 4.33333 29.3333H27.6667C27.7992 29.3352 27.9307 29.3107 28.0537 29.2613C28.1767 29.2119 28.2886 29.1385 28.383 29.0455C28.4773 28.9524 28.5523 28.8416 28.6034 28.7193C28.6546 28.5971 28.6809 28.4658 28.6809 28.3333C28.6809 28.2008 28.6546 28.0696 28.6034 27.9473C28.5523 27.8251 28.4773 27.7142 28.383 27.6212C28.2886 27.5281 28.1767 27.4548 28.0537 27.4053C27.9307 27.3559 27.7992 27.3314 27.6667 27.3333H4.33333Z" fill="#14B8A6"/>
</svg>
