<svg width="24" height="24" viewBox="0 0 24 24" fill="none" xmlns="http://www.w3.org/2000/svg">
<path d="M0.309375 0.0890617C0.239063 0.135937 0.135938 0.239061 0.0890625 0.309374C0.0046875 0.440624 0 0.717186 0 9.86719C0 19.0172 0.0046875 19.2937 0.0890625 19.425C0.135938 19.4953 0.239063 19.5984 0.309375 19.6453C0.440625 19.7297 0.759375 19.7344 12 19.7344C23.2406 19.7344 23.5594 19.7297 23.6906 19.6453C23.7609 19.5984 23.8641 19.4953 23.9109 19.425C23.9953 19.2937 24 19.0172 24 9.86719C24 0.717186 23.9953 0.440624 23.9109 0.309374C23.8641 0.239061 23.7609 0.135937 23.6906 0.0890617C23.5594 0.00468636 23.2406 0 12 0C0.759375 0 0.440625 0.00468636 0.309375 0.0890617ZM13.7344 2.98594C14.0813 3.20156 14.0625 3.01875 14.0625 6.375C14.0625 9.73125 14.0813 9.54844 13.7344 9.76406L13.5703 9.86719H8.48438H3.39844L3.23438 9.76406C2.8875 9.54844 2.90625 9.73594 2.90625 6.36562C2.90625 3.51094 2.91094 3.34687 2.99531 3.22031C3.10313 3.05625 3.25313 2.94844 3.44063 2.90156C3.52031 2.88281 5.83125 2.87344 8.57812 2.87344L13.5703 2.88281L13.7344 2.98594ZM20.7656 2.98594C20.9813 3.11719 21.0938 3.31875 21.0938 3.5625C21.0938 3.80625 20.9813 4.00781 20.7656 4.13906C20.6016 4.24219 20.5828 4.24219 18.3281 4.24219C16.1391 4.24219 16.05 4.2375 15.9 4.14844C15.3656 3.825 15.4875 3.05156 16.0969 2.90156C16.1766 2.88281 17.2219 2.86875 18.4219 2.87344C20.5734 2.88281 20.6016 2.88281 20.7656 2.98594ZM20.7656 5.78906C20.8547 5.84531 20.9672 5.95781 21.0188 6.04219C21.2016 6.35625 21.0844 6.76875 20.7656 6.96094C20.6063 7.05 20.5312 7.05469 18.3281 7.05469C16.1391 7.05469 16.05 7.05 15.9 6.96094C15.3656 6.6375 15.4875 5.86406 16.0969 5.71406C16.1766 5.69531 17.2219 5.68125 18.4219 5.68594C20.5219 5.69531 20.6063 5.7 20.7656 5.78906ZM20.7656 8.60156C20.8547 8.65781 20.9672 8.77031 21.0188 8.85469C21.2016 9.16875 21.0844 9.58125 20.7656 9.77344C20.6063 9.8625 20.5312 9.86719 18.3281 9.86719C16.1391 9.86719 16.05 9.8625 15.9 9.77344C15.3656 9.45 15.4875 8.67656 16.0969 8.52656C16.1766 8.50781 17.2219 8.49375 18.4219 8.49844C20.5219 8.50781 20.6063 8.5125 20.7656 8.60156ZM10.9219 11.4141C11.0109 11.4703 11.1234 11.5828 11.1797 11.6719C11.2688 11.8312 11.2734 11.9062 11.2734 14.1094C11.2734 16.3641 11.2734 16.3828 11.1703 16.5469C10.9547 16.8984 11.2219 16.875 7.06875 16.875C3.50625 16.875 3.34688 16.8703 3.21563 16.7859C3.14531 16.7391 3.04219 16.6359 2.99531 16.5656C2.91094 16.4391 2.90625 16.3031 2.90625 14.1094V11.7891L3.02344 11.6109C3.08906 11.5172 3.15 11.4375 3.15469 11.4375C3.15938 11.4375 3.24844 11.4047 3.35156 11.3672C3.51094 11.3109 4.09219 11.3016 7.14844 11.3109C10.6828 11.3203 10.7625 11.3203 10.9219 11.4141ZM20.7656 11.4141C20.8547 11.4703 20.9672 11.5828 21.0234 11.6719C21.1125 11.8312 21.1172 11.9062 21.1172 14.1094C21.1172 16.3641 21.1172 16.3828 21.0141 16.5469C20.7984 16.8984 21.0656 16.875 16.9125 16.875C13.35 16.875 13.1906 16.8703 13.0594 16.7859C12.9891 16.7391 12.8859 16.6359 12.8391 16.5656C12.7547 16.4391 12.75 16.3031 12.75 14.1094V11.7891L12.8672 11.6109C12.9328 11.5172 12.9938 11.4375 12.9984 11.4375C13.0031 11.4375 13.0922 11.4047 13.1953 11.3672C13.3547 11.3109 13.9359 11.3016 16.9922 11.3109C20.5266 11.3203 20.6063 11.3203 20.7656 11.4141Z" fill="#14B8A6"/>
<path d="M4.26562 6.375V8.48438H8.48438H12.7031V6.375V4.26562H8.48438H4.26562V6.375Z" fill="#14B8A6"/>
<path d="M4.26562 14.0859V15.5156H7.10156H9.9375L9.92813 14.0953L9.91406 12.6797L7.09219 12.6656L4.26562 12.6562V14.0859Z" fill="#14B8A6"/>
<path d="M14.1094 14.0859V15.5156H16.9453H19.7812L19.7719 14.0953L19.7578 12.6797L16.9359 12.6656L14.1094 12.6562V14.0859Z" fill="#14B8A6"/>
<path d="M8.4845 21.8672V22.5938H7.30793C6.20637 22.5938 6.11731 22.5984 5.97668 22.6875C5.57356 22.9359 5.56887 23.6203 5.96731 23.8969L6.122 24H11.9954C17.2736 24 17.8829 23.9906 17.9907 23.925C18.1923 23.8078 18.2954 23.6297 18.3189 23.3672C18.3423 23.0625 18.2392 22.8187 18.0236 22.6875C17.8829 22.5984 17.7939 22.5938 16.6923 22.5938H15.5157V21.8672V21.1406H12.0001H8.4845V21.8672Z" fill="#14B8A6"/>
</svg>
