<svg width="32" height="32" viewBox="0 0 32 32" fill="none" xmlns="http://www.w3.org/2000/svg">
<path d="M15.3333 1.33334C12.2569 1.33334 9.70646 3.67606 9.3724 6.66668H8.00001C6.45934 6.66668 5.17696 7.82148 5.01563 9.35548L3.34896 25.3555C3.26163 26.1981 3.53551 27.0438 4.10417 27.6758C4.67217 28.3058 5.48467 28.6667 6.33334 28.6667H8.66667V19C8.66667 17.7133 9.71334 16.6667 11 16.6667H21C22.2867 16.6667 23.3333 17.7133 23.3333 19V28.6667H25.6667C26.5153 28.6667 27.3272 28.3052 27.8958 27.6745C28.4638 27.0438 28.7384 26.1981 28.651 25.3555L26.9844 9.35548C26.823 7.82215 25.5407 6.66668 24 6.66668H22.6354C22.6561 6.88668 22.6667 7.10934 22.6667 7.33334V11.3333C22.6667 11.7013 22.368 12 22 12C21.632 12 21.3333 11.7013 21.3333 11.3333V11V7.33334C21.3333 4.03153 18.6351 1.33334 15.3333 1.33334ZM15.3333 3.33334C17.3265 3.33334 18.96 4.7674 19.2747 6.66668H12.7552C12.6992 6.88001 12.6667 7.10268 12.6667 7.33334V11.3333C12.6667 11.7013 12.368 12 12 12C11.632 12 11.3333 11.7013 11.3333 11.3333V11V7.33334C11.3333 5.11249 13.1125 3.33334 15.3333 3.33334ZM11 18.6667C10.8167 18.6667 10.6667 18.8167 10.6667 19V28.6667H15V25.1914C14.412 24.9341 14 24.3487 14 23.6667C14 22.9847 14.412 22.3993 15 22.1419V18.6667H11ZM17 18.6667V22.1419C17.588 22.3999 18 22.9847 18 23.6667C18 24.3487 17.588 24.9341 17 25.1914V28.6667H21.3333V19C21.3333 18.8167 21.1833 18.6667 21 18.6667H17Z" fill="#14B8A6"/>
</svg>
