<svg width="32" height="33" viewBox="0 0 32 33" fill="none" xmlns="http://www.w3.org/2000/svg">
<path d="M25.4001 7.48799C24.1777 6.25322 22.7216 5.27421 21.1169 4.60806C19.5122 3.9419 17.7909 3.60194 16.0534 3.60799C8.7734 3.60799 2.84007 9.54132 2.84007 16.8213C2.84007 19.1547 3.4534 21.4213 4.60007 23.4213L2.7334 30.2747L9.7334 28.4347C11.6667 29.488 13.8401 30.048 16.0534 30.048C23.3334 30.048 29.2667 24.1147 29.2667 16.8347C29.2667 13.3013 27.8934 9.98132 25.4001 7.48799ZM16.0534 27.808C14.0801 27.808 12.1467 27.2747 10.4534 26.2747L10.0534 26.0347L5.8934 27.128L7.00007 23.0747L6.7334 22.6613C5.63706 20.9106 5.05492 18.887 5.0534 16.8213C5.0534 10.768 9.98673 5.83466 16.0401 5.83466C18.9734 5.83466 21.7334 6.98132 23.8001 9.06132C24.8234 10.0799 25.6343 11.2915 26.1859 12.6259C26.7375 13.9602 27.0188 15.3908 27.0134 16.8347C27.0401 22.888 22.1067 27.808 16.0534 27.808ZM22.0801 19.5947C21.7467 19.4347 20.1201 18.6347 19.8267 18.5147C19.5201 18.408 19.3067 18.3547 19.0801 18.6747C18.8534 19.008 18.2267 19.7547 18.0401 19.968C17.8534 20.1947 17.6534 20.2213 17.3201 20.048C16.9867 19.888 15.9201 19.528 14.6667 18.408C13.6801 17.528 13.0267 16.448 12.8267 16.1147C12.6401 15.7813 12.8001 15.608 12.9734 15.4347C13.1201 15.288 13.3067 15.048 13.4667 14.8613C13.6267 14.6747 13.6934 14.528 13.8001 14.3147C13.9067 14.088 13.8534 13.9013 13.7734 13.7413C13.6934 13.5813 13.0267 11.9547 12.7601 11.288C12.4934 10.648 12.2134 10.728 12.0134 10.7147H11.3734C11.1467 10.7147 10.8001 10.7947 10.4934 11.128C10.2001 11.4613 9.34673 12.2613 9.34673 13.888C9.34673 15.5147 10.5334 17.088 10.6934 17.3013C10.8534 17.528 13.0267 20.8613 16.3334 22.288C17.1201 22.6347 17.7334 22.8347 18.2134 22.9813C19.0001 23.2347 19.7201 23.1947 20.2934 23.1147C20.9334 23.0213 22.2534 22.3147 22.5201 21.5413C22.8001 20.768 22.8001 20.1147 22.7067 19.968C22.6134 19.8213 22.4134 19.7547 22.0801 19.5947Z" fill="#4B5563"/>
</svg>
