<svg width="400" height="267" viewBox="0 0 400 267" fill="none" xmlns="http://www.w3.org/2000/svg">
<g clip-path="url(#clip0_33928_272394)">
<path d="M305.192 165.21C305.192 165.21 338.464 135.788 336.087 77.3269C333.71 18.8662 288.352 -8.03873 255.253 -0.850232C222.154 6.33827 212.687 24.7006 185.389 32.5517C158.091 40.4028 109.753 26.9167 80.6551 60.8426C51.5574 94.7685 75.6491 159.701 111.05 202.864C146.45 246.028 251.665 234.388 305.192 165.21Z" fill="#F3F4F6"/>
<path d="M36.7793 230.829L77.318 230.701L117.857 230.653L198.934 230.562L280.011 230.653L320.55 230.701L361.089 230.829L320.55 230.962L280.011 231.005L198.934 231.096L117.857 231.005L77.318 230.957L36.7793 230.829Z" fill="#263238"/>
<path d="M200 242C295.545 242 373 237.075 373 231C373 224.925 295.545 220 200 220C104.455 220 27 224.925 27 231C27 237.075 104.455 242 200 242Z" fill="#EBEBEB" fill-opacity="0.5"/>
<path d="M288.211 230.427H125.715L149.208 97.1738H311.704L288.211 230.427Z" fill="#8DD0B8"/>
<path d="M204.823 83.3711H151.644L149.207 97.1738H206.119L204.823 83.3711Z" fill="#8DD0B8"/>
<g opacity="0.1">
<path d="M288.211 230.427H125.715L149.208 97.1738H311.704L288.211 230.427Z" fill="black"/>
<path d="M204.825 83.3711H151.646L149.209 97.1738H206.121L204.825 83.3711Z" fill="black"/>
</g>
<path fill-rule="evenodd" clip-rule="evenodd" d="M151.309 82.9707H205.188L206.463 96.7734H312.179L288.545 230.827H125.236L148.871 96.7734H148.873L151.309 82.9707ZM151.98 83.7707L149.544 97.5734H149.542L126.19 230.027H287.873L311.226 97.5734H205.734L204.458 83.7707H151.98Z" fill="#223567"/>
<path d="M91.3949 96.3854C88.8557 94.9087 86.5748 92.9524 84.7286 90.6677C87.2679 92.1444 89.5487 94.1007 91.3949 96.3854Z" fill="#263238"/>
<path d="M87.2348 104.914C85.8621 104.964 84.481 104.838 83.126 104.538C81.7695 104.278 80.4442 103.851 79.1816 103.266C80.5516 103.209 81.9308 103.333 83.2832 103.635C84.6419 103.899 85.9693 104.328 87.2348 104.914Z" fill="#263238"/>
<path d="M88.5311 114.442C86.0712 115.865 83.2267 116.664 80.2168 116.777C81.4284 116.054 82.7522 115.5 84.1563 115.128C85.5533 114.715 87.023 114.485 88.5311 114.442Z" fill="#263238"/>
<path d="M93.9406 122.236C92.4639 124.775 90.5077 127.056 88.2229 128.902C89.6996 126.363 91.6559 124.082 93.9406 122.236Z" fill="#263238"/>
<path d="M137.96 103.418C137.394 103.958 136.764 104.426 136.083 104.81C135.414 105.209 134.697 105.521 133.949 105.738C134.512 105.195 135.143 104.727 135.827 104.346C136.494 103.945 137.211 103.633 137.96 103.418Z" fill="#263238"/>
<path d="M141.502 106.826C141.048 108.327 140.254 109.703 139.182 110.848C139.399 110.099 139.713 109.382 140.115 108.714C140.495 108.029 140.961 107.394 141.502 106.826Z" fill="#263238"/>
<path d="M146.28 108.006C146.466 108.765 146.555 109.544 146.546 110.326C146.558 111.107 146.468 111.887 146.28 112.646C146.089 111.888 145.999 111.108 146.013 110.326C146.004 109.544 146.094 108.765 146.28 108.006Z" fill="#263238"/>
<path d="M151.004 106.667C151.547 107.23 152.015 107.861 152.396 108.544C152.797 109.212 153.109 109.929 153.324 110.678C152.252 109.533 151.458 108.157 151.004 106.656V106.667Z" fill="#263238"/>
<path d="M154.412 103.094C155.161 103.309 155.878 103.621 156.545 104.022C157.229 104.403 157.86 104.871 158.423 105.414C157.674 105.198 156.957 104.886 156.289 104.486C155.606 104.105 154.975 103.637 154.412 103.094Z" fill="#263238"/>
<path d="M117.244 93.84C118.721 91.3006 120.677 89.02 122.962 87.1737C121.485 89.713 119.529 91.9937 117.244 93.84Z" fill="#263238"/>
<path d="M108.728 89.6665C108.68 88.296 108.805 86.9185 109.101 85.5668C109.348 84.2097 109.772 82.885 110.364 81.6278C110.433 84.3809 109.869 87.1366 108.716 89.681L108.728 89.6665Z" fill="#263238"/>
<path d="M99.1892 90.9772C98.3558 89.6651 97.692 88.2478 97.2131 86.7579C96.693 85.2752 96.3685 83.7241 96.2476 82.1431C97.0891 83.4506 97.7534 84.869 98.2237 86.3625C98.7438 87.8452 99.0683 89.3963 99.1892 90.9772Z" fill="#263238"/>
<g filter="url(#filter0_dd_33928_272394)">
<path d="M287.97 230.426H125.127L102.002 102.01H264.85L287.97 230.426Z" fill="#8DD0B8"/>
</g>
<path fill-rule="evenodd" clip-rule="evenodd" d="M101.523 101.611H265.183L288.446 230.826H124.793L101.523 101.611ZM102.478 102.41L125.46 230.027H287.491L264.515 102.41H102.478Z" fill="#223567"/>
<path d="M158.434 180.513C162.172 180.513 165.202 177.482 165.202 173.745C165.202 170.007 162.172 166.977 158.434 166.977C154.696 166.977 151.666 170.007 151.666 173.745C151.666 177.482 154.696 180.513 158.434 180.513Z" fill="#FCFFFC"/>
<path d="M211.938 180.513C215.676 180.513 218.706 177.482 218.706 173.745C218.706 170.007 215.676 166.977 211.938 166.977C208.2 166.977 205.17 170.007 205.17 173.745C205.17 177.482 208.2 180.513 211.938 180.513Z" fill="#FCFFFC"/>
<path d="M194.909 181.595L194.536 180.886C194.504 180.822 191.005 174.358 183.97 174.358C177.57 174.358 175.97 180.443 175.928 180.704L175.736 181.478L174.184 181.104L174.37 180.326C174.37 180.251 176.28 172.758 183.97 172.758C191.97 172.758 195.794 179.84 195.954 180.144L196.328 180.848L194.909 181.595Z" fill="#FCFFFC"/>
<path d="M277.217 173.226L277.105 172.693C277.452 172.618 277.793 172.538 278.135 172.447L278.268 172.981C277.905 173.071 277.569 173.151 277.217 173.226Z" fill="#263238"/>
<path d="M280.332 172.368L280.161 171.867C280.828 171.638 281.494 171.387 282.14 171.115L282.348 171.606C281.692 171.883 281.014 172.139 280.332 172.368ZM284.305 170.667L284.065 170.198C284.689 169.872 285.313 169.52 285.905 169.131L286.182 169.584C285.574 170.006 284.94 170.363 284.305 170.667ZM287.974 168.411L287.66 167.979C288.236 167.558 288.79 167.115 289.313 166.661L289.665 167.062C289.105 167.547 288.572 168 287.969 168.432L287.974 168.411ZM291.228 165.574L290.838 165.206C291.329 164.672 291.793 164.139 292.22 163.606L292.641 163.931C292.198 164.518 291.724 165.067 291.238 165.595L291.228 165.574ZM293.868 162.16L293.414 161.878C293.783 161.282 294.111 160.662 294.396 160.022L294.886 160.24C294.585 160.908 294.243 161.556 293.862 162.182L293.868 162.16ZM295.633 158.203L295.1 158.054C295.294 157.384 295.439 156.702 295.532 156.011L296.065 156.08C295.977 156.805 295.83 157.522 295.628 158.224L295.633 158.203ZM296.225 153.936H295.692V153.782C295.692 153.136 295.654 152.48 295.59 151.835L296.124 151.782C296.194 152.446 296.229 153.113 296.23 153.782L296.225 153.936ZM295.265 149.76C295.121 149.073 294.943 148.393 294.732 147.723L295.265 147.563C295.484 148.256 295.67 148.96 295.798 149.648L295.265 149.76ZM294.001 145.744C293.745 145.115 293.468 144.47 293.126 143.819L293.606 143.579C293.932 144.24 294.23 144.902 294.492 145.542L294.001 145.744ZM292.134 141.942C291.804 141.36 291.441 140.747 291.068 140.118L291.521 139.835C291.91 140.47 292.278 141.088 292.588 141.68L292.134 141.942ZM289.905 138.32C289.516 137.734 289.121 137.142 288.716 136.55L289.158 136.251C289.564 136.843 289.958 137.435 290.348 138.032L289.905 138.32ZM287.505 134.79C287.105 134.203 286.7 133.611 286.305 133.024L286.748 132.726C287.142 133.312 287.542 133.904 287.942 134.486L287.505 134.79ZM285.121 131.238C284.732 130.64 284.353 130.032 283.98 129.424L284.433 129.147C284.806 129.755 285.185 130.352 285.569 130.95L285.121 131.238ZM282.897 127.574C282.534 126.928 282.198 126.288 281.894 125.675L282.374 125.435C282.673 126.043 283.009 126.672 283.361 127.312L282.897 127.574ZM281.004 123.734C280.721 123.067 280.47 122.39 280.236 121.728L280.769 121.558C280.993 122.203 281.244 122.87 281.521 123.526L281.004 123.734ZM279.617 119.664C279.441 118.971 279.286 118.262 279.169 117.531L279.702 117.446C279.82 118.128 279.964 118.822 280.14 119.504L279.617 119.664ZM278.902 115.398C278.849 114.742 278.822 114.08 278.822 113.419V113.243H279.356V113.414C279.356 114.059 279.356 114.71 279.436 115.35L278.902 115.398ZM279.436 111.131L278.902 111.078C278.902 110.934 278.929 110.784 278.945 110.63C279.009 110.059 279.089 109.488 279.185 108.944L279.718 109.035C279.628 109.568 279.548 110.128 279.484 110.688C279.505 110.854 279.505 110.998 279.462 111.147L279.436 111.131ZM280.177 106.982L279.644 106.838C279.841 106.134 280.07 105.446 280.326 104.79L280.822 104.982C280.58 105.642 280.373 106.315 280.204 106.998L280.177 106.982ZM306.753 103.872C306.454 103.872 306.145 103.83 305.841 103.787C305.425 103.728 305.009 103.659 304.598 103.579L304.705 103.046C305.1 103.12 305.51 103.19 305.916 103.248C306.204 103.286 306.497 103.312 306.78 103.328L306.753 103.872ZM308.945 103.707L308.833 103.174C309.502 103.035 310.144 102.787 310.732 102.438L311.009 102.891C310.381 103.28 309.692 103.561 308.972 103.723L308.945 103.707ZM281.713 103.072L281.238 102.822C281.578 102.185 281.954 101.569 282.364 100.976L282.801 101.28C282.411 101.861 282.057 102.465 281.74 103.088L281.713 103.072ZM302.513 103.04C301.824 102.822 301.148 102.567 300.486 102.278L300.705 101.787C301.346 102.072 302.003 102.319 302.673 102.528L302.513 103.04ZM312.646 101.376L312.204 101.078C312.583 100.527 312.808 99.8837 312.854 99.2162L313.388 99.2535C313.342 100.019 313.092 100.757 312.662 101.392L312.646 101.376ZM298.566 101.296C297.942 100.933 297.339 100.536 296.758 100.107L297.073 99.6802C297.638 100.097 298.225 100.481 298.833 100.832L298.566 101.296ZM284.113 99.6322L283.718 99.2748C284.201 98.7378 284.716 98.2302 285.26 97.7548L285.612 98.1548C285.088 98.623 284.593 99.1216 284.129 99.6482L284.113 99.6322ZM295.094 98.7308C294.563 98.2415 294.059 97.7234 293.585 97.1788L293.985 96.8268C294.447 97.3558 294.936 97.8596 295.452 98.3362L295.094 98.7308ZM312.454 97.2855C312.149 96.676 311.727 96.1324 311.212 95.6855L311.564 95.2855C312.13 95.7757 312.596 96.3717 312.934 97.0402L312.454 97.2855ZM287.27 96.8642L286.966 96.4268C287.563 96.0195 288.181 95.6439 288.817 95.3015L289.068 95.7708C288.455 96.1094 287.86 96.4797 287.286 96.8802L287.27 96.8642ZM292.252 95.4775C292.049 95.1895 291.852 94.8962 291.665 94.5922L290.972 94.8642L290.769 94.3735L291.382 94.1282C291.286 93.9682 291.19 93.8082 291.1 93.6482L291.564 93.3868C291.67 93.5735 291.777 93.7602 291.889 93.9202C292.188 93.8135 292.492 93.7122 292.801 93.6162L292.956 94.1495C292.694 94.2295 292.422 94.3148 292.177 94.4055C292.342 94.6668 292.513 94.9388 292.71 95.1682L292.252 95.4775ZM309.494 94.5602C308.978 94.303 308.443 94.0855 307.894 93.9095L307.542 93.7975L307.697 93.2642L308.06 93.3815C308.631 93.5636 309.187 93.7901 309.724 94.0588L309.494 94.5602ZM294.998 93.6055L294.886 93.0722C295.574 92.9175 296.289 92.7895 297.02 92.6882L297.1 93.2215C296.396 93.3335 295.697 93.4668 295.014 93.6215L294.998 93.6055ZM305.505 93.3175C304.838 93.2002 304.134 93.1095 303.414 93.0455L303.457 92.5122C304.198 92.5762 304.918 92.6668 305.59 92.7895L305.505 93.3175ZM299.185 93.0082L299.148 92.4748C299.782 92.4375 300.417 92.4162 301.046 92.4162H301.308V92.9495H301.052C300.449 92.9655 299.82 92.9815 299.201 93.0242L299.185 93.0082ZM290.172 91.7335C289.884 91.0828 289.638 90.4055 289.398 89.7175L289.932 89.5522C290.156 90.2242 290.406 90.8855 290.684 91.5202L290.172 91.7335ZM288.822 87.6375C288.662 86.9495 288.529 86.2348 288.428 85.5042L288.961 85.4295C289.062 86.1335 289.19 86.8322 289.345 87.5095L288.822 87.6375ZM288.225 83.3708C288.198 82.8908 288.182 82.4002 288.182 81.9095C288.182 81.6802 288.182 81.4455 288.182 81.2162H288.716C288.716 81.4455 288.716 81.6695 288.716 81.8988C288.716 82.3788 288.716 82.8642 288.753 83.3282L288.225 83.3708ZM288.86 79.1042L288.326 79.0508C288.401 78.3468 288.502 77.6268 288.625 76.9175L289.158 77.0082C289.014 77.7175 288.913 78.4002 288.844 79.1148L288.86 79.1042ZM289.59 74.9388L289.057 74.8108C289.228 74.1228 289.425 73.4295 289.644 72.7362L290.177 72.9015C289.937 73.6002 289.74 74.2775 289.574 74.9495L289.59 74.9388ZM290.87 70.9015L290.374 70.7095C290.636 70.0428 290.908 69.3762 291.233 68.7308L291.713 68.9655C291.393 69.6055 291.11 70.2562 290.854 70.9335L290.87 70.9015ZM292.705 67.0988L292.241 66.8268C292.604 66.2135 292.993 65.6002 293.398 65.0135L293.836 65.3175C293.42 65.9042 293.041 66.5015 292.689 67.1095L292.705 67.0988ZM295.11 63.6268L294.694 63.2908C295.142 62.7575 295.622 62.1922 296.118 61.6908L296.502 62.0588C296.001 62.5602 295.532 63.0935 295.094 63.6375L295.11 63.6268ZM298.012 60.5548L297.654 60.1602C298.188 59.6855 298.721 59.2162 299.292 58.7628L299.622 59.1842C299.052 59.6375 298.508 60.1015 297.996 60.5655L298.012 60.5548ZM301.324 57.9202L301.02 57.4775C301.601 57.0775 302.209 56.6828 302.828 56.3095L303.1 56.7628C302.481 57.1415 301.905 57.5308 301.308 57.9308L301.324 57.9202ZM304.945 55.7175L304.694 55.2482C305.324 54.9122 305.974 54.5922 306.625 54.2935L306.849 54.7788C306.172 55.0828 305.548 55.4028 304.929 55.7282L304.945 55.7175ZM308.801 53.9468L308.604 53.4455C309.276 53.1842 309.953 52.9122 310.625 52.7148L310.796 53.2482C310.118 53.4508 309.446 53.6962 308.785 53.9575L308.801 53.9468Z" fill="#263238"/>
<path d="M312.913 52.597L312.779 52.0637C313.441 51.893 313.846 51.8184 313.846 51.8184L313.942 52.3517C313.942 52.3517 313.558 52.4317 312.913 52.597Z" fill="#263238"/>
<path d="M322.342 49.1512C320.982 44.9378 311.873 46.4525 313.649 51.9618C315.425 57.4712 323.702 53.3698 322.342 49.1512Z" fill="#263238"/>
<path d="M308.695 47.4666C308.764 45.6159 311.335 44.1919 314.972 44.8479C318.609 45.5039 322.028 47.9572 322.028 47.9572C322.028 47.9572 318.439 50.1332 314.764 50.5332C311.089 50.9332 308.625 49.3119 308.695 47.4666Z" fill="#EBEBEB"/>
<path d="M322.027 47.9472C320.139 47.9472 318.257 47.8939 316.374 47.8352C314.491 47.7766 312.603 47.6806 310.721 47.5312C312.609 47.5312 314.497 47.5792 316.379 47.6379C318.262 47.6966 320.15 47.7926 322.027 47.9472Z" fill="#263238"/>
<path d="M312.348 45.8184C313.419 46.3311 314.43 46.9626 315.361 47.701C314.825 47.4493 314.304 47.1643 313.804 46.8477C313.299 46.5332 312.813 46.1895 312.348 45.8184Z" fill="#263238"/>
<path d="M317.292 47.7715C316.327 48.5534 315.281 49.2293 314.172 49.7875C315.142 49.0046 316.193 48.3287 317.308 47.7715H317.292Z" fill="#263238"/>
<path d="M317.842 46.7305C318.38 46.9889 318.851 47.3686 319.218 47.8398C318.949 47.7128 318.696 47.5534 318.466 47.3651C318.234 47.1781 318.025 46.9651 317.842 46.7305Z" fill="#263238"/>
<path d="M312.162 58.4258C313.298 59.8872 316.215 59.5352 318.78 56.8792C321.346 54.2232 322.706 50.2285 322.706 50.2285C322.706 50.2285 318.503 50.5485 315.298 52.3618C312.092 54.1752 311.02 56.9592 312.162 58.4258Z" fill="#EBEBEB"/>
<path d="M322.705 50.2285C321.169 51.2952 319.676 52.4792 318.177 53.6259C316.679 54.7725 315.212 55.9565 313.777 57.1778C315.313 56.1112 316.807 54.9325 318.3 53.7858C319.793 52.6392 321.249 51.4552 322.705 50.2285Z" fill="#263238"/>
<path d="M316.082 57.5998C316.367 57.0817 316.622 56.5475 316.845 55.9998C317.072 55.4506 317.264 54.8877 317.421 54.3145C317.135 54.8321 316.88 55.3664 316.658 55.9145C316.433 56.4645 316.241 57.0272 316.082 57.5998Z" fill="#263238"/>
<path d="M318.972 53.1404C317.724 53.0737 316.472 53.1398 315.238 53.3377C315.86 53.375 316.483 53.375 317.105 53.3377C317.73 53.3072 318.354 53.2413 318.972 53.1404Z" fill="#263238"/>
<path d="M320.002 53.669C320.144 53.4056 320.255 53.1264 320.333 52.837C320.412 52.5498 320.458 52.2546 320.471 51.957C320.188 52.485 320.027 53.0703 320.002 53.669Z" fill="#263238"/>
<path d="M322.342 49.1511C322.041 49.2489 321.718 49.2551 321.413 49.169C321.108 49.0828 320.836 48.9082 320.63 48.6671C320.425 48.4261 320.296 48.1295 320.259 47.815C320.222 47.5005 320.28 47.1821 320.424 46.9002C320.568 46.6183 320.793 46.3856 321.07 46.2315C321.346 46.0774 321.662 46.0089 321.978 46.0346C322.294 46.0603 322.595 46.1791 322.843 46.376C323.091 46.5728 323.275 46.8389 323.372 47.1404C323.501 47.5436 323.465 47.9815 323.272 48.3584C323.079 48.7353 322.745 49.0203 322.342 49.1511Z" fill="#455A64"/>
<path d="M323.325 52.1965C323.024 52.2939 322.701 52.2999 322.396 52.2137C322.092 52.1274 321.82 51.9529 321.615 51.7121C321.409 51.4713 321.28 51.175 321.243 50.8608C321.206 50.5466 321.264 50.2284 321.407 49.9466C321.551 49.6648 321.775 49.432 322.052 49.2776C322.328 49.1232 322.644 49.0542 322.959 49.0792C323.274 49.1043 323.575 49.2222 323.824 49.4183C324.072 49.6143 324.257 49.8795 324.354 50.1805C324.419 50.3805 324.444 50.5912 324.427 50.8008C324.411 51.0104 324.353 51.2146 324.257 51.4018C324.162 51.589 324.03 51.7556 323.87 51.8919C323.71 52.0283 323.525 52.1318 323.325 52.1965Z" fill="#455A64"/>
</g>
<defs>
<filter id="filter0_dd_33928_272394" x="82.002" y="102.01" width="225.969" height="168.416" filterUnits="userSpaceOnUse" color-interpolation-filters="sRGB">
<feFlood flood-opacity="0" result="BackgroundImageFix"/>
<feColorMatrix in="SourceAlpha" type="matrix" values="0 0 0 0 0 0 0 0 0 0 0 0 0 0 0 0 0 0 127 0" result="hardAlpha"/>
<feMorphology radius="5" operator="erode" in="SourceAlpha" result="effect1_dropShadow_33928_272394"/>
<feOffset dy="20"/>
<feGaussianBlur stdDeviation="12.5"/>
<feColorMatrix type="matrix" values="0 0 0 0 0 0 0 0 0 0 0 0 0 0 0 0 0 0 0.1 0"/>
<feBlend mode="normal" in2="BackgroundImageFix" result="effect1_dropShadow_33928_272394"/>
<feColorMatrix in="SourceAlpha" type="matrix" values="0 0 0 0 0 0 0 0 0 0 0 0 0 0 0 0 0 0 127 0" result="hardAlpha"/>
<feMorphology radius="5" operator="erode" in="SourceAlpha" result="effect2_dropShadow_33928_272394"/>
<feOffset dy="10"/>
<feGaussianBlur stdDeviation="5"/>
<feColorMatrix type="matrix" values="0 0 0 0 0 0 0 0 0 0 0 0 0 0 0 0 0 0 0.04 0"/>
<feBlend mode="normal" in2="effect1_dropShadow_33928_272394" result="effect2_dropShadow_33928_272394"/>
<feBlend mode="normal" in="SourceGraphic" in2="effect2_dropShadow_33928_272394" result="shape"/>
</filter>
<clipPath id="clip0_33928_272394">
<rect width="400" height="266.667" fill="white"/>
</clipPath>
</defs>
</svg>
