<svg width="404" height="430" viewBox="0 0 404 430" fill="none" xmlns="http://www.w3.org/2000/svg">
<path d="M37.8115 181.089C37.8115 181.089 5.4675 229.929 28.4515 303.593C51.4355 377.257 118.404 396.049 158.116 375.593C197.827 355.137 203.62 328.513 235.715 309.193C267.812 289.873 333.996 290.553 359.483 237.401C384.971 184.249 332.116 109.753 272.283 66.8491C212.451 23.9451 82.3875 74.6891 37.8115 181.089Z" fill="#F3F4F6"/>
<path d="M151.723 266.129H45.707V128.801H151.723V266.129ZM46.507 265.329H150.923V129.601H46.507V265.329Z" fill="#475780"/>
<path d="M148.732 262.256H48.668V132.656H148.732V262.256ZM49.532 261.456H147.932V133.456H49.468L49.532 261.456Z" fill="#475780"/>
<path d="M123.868 229.969H73.5723V164.969H123.868V229.969ZM74.3883 229.169H123.068V165.769H74.3723L74.3883 229.169Z" fill="#475780"/>
<g filter="url(#filter0_dd_33928_271994)">
<path d="M83.9847 168.762V140.606H22V125.13L80.4374 38.2376H103.775V122.706H120.765V140.606H103.775V168.762H83.9847ZM44.0307 122.706H85.1049V60.4268L44.0307 122.706Z" fill="#8DD0B8"/>
<path d="M200.226 171C190.144 171 181.307 168.265 173.715 162.796C166.247 157.326 160.459 149.557 156.352 139.488C152.244 129.294 150.191 117.298 150.191 103.5C150.191 89.5773 152.244 77.5815 156.352 67.5124C160.459 57.4434 166.247 49.674 173.715 44.2044C181.307 38.7348 190.144 36 200.226 36C210.433 36 219.27 38.7348 226.738 44.2044C234.206 49.674 239.994 57.4434 244.101 67.5124C248.208 77.5815 250.262 89.5773 250.262 103.5C250.262 117.298 248.208 129.294 244.101 139.488C239.994 149.557 234.206 157.326 226.738 162.796C219.27 168.265 210.433 171 200.226 171ZM170.354 103.5C170.354 110.461 170.977 116.801 172.221 122.519C173.466 128.238 175.208 133.21 177.449 137.436L210.121 56.6975C207.01 55.2058 203.711 54.4599 200.226 54.4599C191.514 54.4599 184.357 58.8729 178.756 67.6989C173.155 76.4005 170.354 88.3343 170.354 103.5ZM200.226 152.727C206.076 152.727 211.242 150.738 215.723 146.76C220.203 142.782 223.688 137.126 226.178 129.791C228.792 122.333 230.098 113.569 230.098 103.5C230.098 96.5387 229.476 90.1989 228.231 84.4807C226.987 78.7624 225.244 73.8522 223.004 69.75L190.331 150.489C193.443 151.981 196.741 152.727 200.226 152.727Z" fill="#8DD0B8"/>
<path d="M345.22 168.762V140.606H283.235V125.13L341.673 38.2376H365.01V122.706H382V140.606H365.01V168.762H345.22ZM305.266 122.706H346.34V60.4268L305.266 122.706Z" fill="#8DD0B8"/>
<path d="M82.9847 168.762V169.762H83.9847H103.775H104.775V168.762V141.606H120.765H121.765V140.606V122.706V121.706H120.765H104.775V38.2376V37.2376H103.775H80.4374H79.9048L79.6076 37.6795L21.1702 124.572L21 124.825V125.13V140.606V141.606H22H82.9847V168.762ZM173.124 163.602L173.13 163.607C180.906 169.209 189.952 172 200.226 172C210.622 172 219.672 169.21 227.329 163.602C234.97 158.006 240.862 150.075 245.027 139.865L245.029 139.861C249.194 129.523 251.262 117.395 251.262 103.5C251.262 89.4826 249.195 77.3522 245.027 67.1347C240.862 56.9247 234.97 48.9944 227.329 43.3977C219.672 37.7896 210.622 35 200.226 35C189.952 35 180.906 37.7911 173.13 43.393L173.124 43.3977C165.482 48.9944 159.591 56.9247 155.426 67.1347C151.258 77.3522 149.191 89.4826 149.191 103.5C149.191 117.395 151.258 129.523 155.424 139.861L155.426 139.865C159.591 150.075 165.482 158.006 173.124 163.602ZM179.597 68.2401L179.6 68.2347C185.06 59.6308 191.928 55.4599 200.226 55.4599C203.246 55.4599 206.112 56.0436 208.835 57.2113L177.354 135.005C175.626 131.315 174.238 127.084 173.198 122.307C171.971 116.67 171.354 110.403 171.354 103.5C171.354 88.4419 174.137 76.7217 179.597 68.2401ZM225.234 129.461L225.231 129.47C222.781 136.687 219.377 142.178 215.059 146.012C210.756 149.832 205.825 151.727 200.226 151.727C197.207 151.727 194.34 151.143 191.618 149.975L223.11 72.1528C224.832 75.7462 226.216 79.9232 227.254 84.6933C228.481 90.33 229.098 96.5972 229.098 103.5C229.098 113.486 227.802 122.133 225.234 129.461ZM344.22 168.762V169.762H345.22H365.01H366.01V168.762V141.606H382H383V140.606V122.706V121.706H382H366.01V38.2376V37.2376H365.01H341.673H341.14L340.843 37.6795L282.405 124.572L282.235 124.825V125.13V140.606V141.606H283.235H344.22V168.762ZM84.1049 63.7594V121.706H45.8881L84.1049 63.7594ZM345.34 63.7594V121.706H307.123L345.34 63.7594Z" stroke="#6C789A" stroke-width="2"/>
</g>
<path d="M367.282 290.658C363.859 290.449 357.476 286.537 357.469 286.533C357.461 286.529 361.67 282.479 361.968 282.255C365.348 279.675 373.121 276.653 376.449 279.288C376.99 279.751 377.419 280.343 377.71 281.025C378 281.707 378.145 282.463 378.135 283.246C378.124 284.029 377.959 284.82 377.65 285.567C377.341 286.315 376.895 287.003 376.341 287.585C374.035 290.173 370.191 290.831 367.282 290.658Z" fill="#475780"/>
<path d="M352.63 310.857C349.618 309.729 344.936 304.466 344.564 304.048C341.423 307.287 338.107 310.322 334.637 313.133C332.627 314.781 330.554 316.382 328.464 317.962C329.482 317.417 330.455 316.846 330.573 316.812C334.381 315.205 342.365 314.389 344.809 318.008C345.198 318.623 345.452 319.334 345.553 320.096C345.655 320.857 345.601 321.652 345.397 322.429C345.192 323.205 344.841 323.945 344.366 324.602C343.892 325.258 343.304 325.815 342.641 326.238C339.876 328.13 336.124 327.685 333.468 326.696C330.813 325.707 326.687 321.297 325.611 320.109C324.808 320.711 324.006 321.312 323.196 321.909C319.316 324.755 315.418 327.614 311.694 330.482C310.375 331.498 309.107 332.545 307.832 333.587C308.751 333.076 309.53 332.653 309.658 332.602C313.466 330.995 321.45 330.179 323.894 333.798C324.284 334.412 324.538 335.122 324.64 335.883C324.741 336.644 324.688 337.438 324.484 338.214C324.28 338.99 323.929 339.729 323.455 340.385C322.981 341.041 322.393 341.598 321.731 342.019C318.966 343.912 315.209 343.476 312.558 342.478C309.907 341.48 306.164 337.506 304.894 336.105C303.615 337.224 302.333 338.33 301.135 339.462C300.33 340.255 299.508 340.958 298.739 341.794C297.969 342.63 297.19 343.414 296.432 344.212C295.009 345.803 293.534 347.432 292.18 349.006C291.231 350.101 290.341 351.162 289.447 352.231C290.744 351.201 293.331 349.24 293.568 349.105C297.169 346.914 305.086 344.824 308.091 347.952C308.571 348.485 308.928 349.135 309.139 349.857C309.35 350.58 309.41 351.361 309.314 352.148C309.219 352.936 308.972 353.712 308.587 354.427C308.203 355.142 307.691 355.779 307.084 356.297C304.567 358.582 300.713 358.758 297.899 358.232C294.781 357.633 289.518 353.496 288.842 353.003C287.368 354.769 285.94 356.504 284.621 358.155C283.918 359.03 283.264 359.853 282.618 360.681L280.332 359.361C281.101 358.423 281.897 357.455 282.733 356.454C284.227 354.654 285.854 352.762 287.545 350.827C286.271 349.037 285.107 347.155 284.059 345.19C280.812 346.442 274.383 346.4 273.556 346.375C273.147 348.609 272.768 350.791 272.435 352.842C272.334 353.463 272.252 354.05 272.158 354.642L269.753 353.253L269.86 352.657C270.261 350.386 270.75 347.961 271.259 345.468C270.47 345.239 264.018 343.282 261.766 341.063C259.718 339.055 257.706 335.82 258.199 332.48C258.291 331.693 258.535 330.916 258.915 330.201C259.296 329.485 259.805 328.846 260.41 328.325C261.014 327.804 261.7 327.413 262.422 327.177C263.145 326.942 263.888 326.867 264.604 326.957C268.888 327.629 271.604 335.269 271.808 339.442C271.816 339.685 271.674 342.4 271.545 344.115C271.761 343.107 271.969 342.095 272.185 341.087C272.609 339.066 273.137 336.969 273.661 334.758C273.958 333.694 274.253 332.618 274.538 331.525C274.822 330.432 275.223 329.327 275.564 328.222C276.413 325.653 277.381 323.086 278.408 320.518C276.753 320.299 270.888 319.45 268.541 317.824C266.194 316.197 263.707 313.39 263.724 310.069C263.706 309.29 263.843 308.497 264.126 307.74C264.41 306.983 264.832 306.28 265.367 305.677C265.902 305.074 266.538 304.583 267.232 304.238C267.926 303.892 268.664 303.699 269.397 303.671C273.804 303.633 277.631 310.6 278.43 314.618C278.477 314.861 278.738 317.855 278.858 319.498C279.482 317.955 280.101 316.421 280.783 314.878C282.754 310.42 284.862 305.962 286.951 301.504C287.59 300.14 288.222 298.772 288.848 297.412C288.256 297.342 281.245 296.489 278.611 294.673C276.272 293.051 273.777 290.24 273.806 286.915C273.787 286.135 273.923 285.341 274.206 284.584C274.488 283.826 274.911 283.123 275.446 282.519C275.982 281.916 276.618 281.425 277.312 281.08C278.007 280.735 278.746 280.543 279.48 280.517C283.879 280.474 287.701 287.45 288.504 291.459C288.565 291.766 288.932 296.067 288.978 297.17C290.359 294.161 291.72 291.152 292.948 288.134C294.63 284.075 296.073 279.932 297.267 275.732C296.993 275.71 289.679 274.852 286.971 272.994C284.631 271.371 282.144 268.564 282.166 265.235C282.146 264.456 282.283 263.661 282.565 262.904C282.848 262.147 283.271 261.443 283.806 260.84C284.341 260.236 284.977 259.746 285.672 259.401C286.367 259.056 287.105 258.864 287.839 258.837C292.239 258.795 296.061 265.77 296.864 269.779C296.927 270.099 297.325 274.724 297.336 275.58C297.406 275.337 297.502 275.086 297.565 274.84C298.658 270.608 299.405 266.324 299.799 262.038C300.044 259.676 300.159 257.42 300.224 255.215C298.822 255.21 292.459 255.104 289.822 253.74C287.184 252.376 284.499 249.965 284.172 246.707C284.07 245.946 284.122 245.152 284.325 244.375C284.528 243.599 284.877 242.859 285.35 242.201C285.823 241.544 286.408 240.985 287.069 240.56C287.731 240.136 288.452 239.855 289.187 239.736C293.617 239.178 298.184 245.565 299.431 249.422C299.499 249.631 299.945 251.86 300.24 253.491C300.256 252.504 300.291 251.482 300.287 250.528C300.279 246.978 300.064 243.75 299.855 240.888C299.72 239.27 299.571 237.813 299.443 236.459C298.144 235.709 293.035 232.488 291.46 229.936C289.884 227.384 288.641 223.777 289.806 220.508C290.054 219.742 290.444 219.021 290.952 218.393C291.46 217.765 292.074 217.243 292.754 216.861C293.435 216.48 294.166 216.247 294.901 216.178C295.636 216.109 296.359 216.206 297.022 216.462C300.949 218.129 301.989 226.409 301.341 230.634C301.288 231 299.824 236.69 299.735 236.639L299.653 236.592C299.831 237.895 300.002 239.297 300.168 240.843C300.441 243.696 300.72 246.916 300.803 250.475C300.927 254.306 300.842 258.168 300.549 262.041C300.237 266.377 299.565 270.72 298.541 275.018C298.516 275.06 298.487 275.111 298.462 275.154C299.179 273.914 301.18 270.447 301.391 270.218C303.977 266.716 310.729 261.348 314.808 262.684C315.477 262.926 316.073 263.322 316.559 263.848C317.045 264.374 317.41 265.017 317.629 265.735C317.848 266.454 317.917 267.232 317.831 268.018C317.746 268.805 317.507 269.582 317.131 270.301C315.622 273.394 312.027 275.283 309.098 276.106C305.805 277.026 298.87 275.751 298.316 275.647C297.175 280.006 295.773 284.313 294.12 288.539C293.159 291.009 292.136 293.465 291.075 295.922C291.693 294.852 292.247 293.892 292.365 293.79C294.959 290.292 301.71 284.924 305.787 286.247C306.457 286.488 307.055 286.884 307.542 287.41C308.029 287.935 308.395 288.579 308.615 289.298C308.835 290.017 308.904 290.795 308.818 291.583C308.733 292.37 308.494 293.149 308.117 293.868C306.608 296.961 303.006 298.846 300.084 299.674C297.161 300.501 291.165 299.554 289.599 299.284C289.197 300.185 288.772 301.162 288.358 302.102C286.351 306.607 284.322 311.099 282.465 315.532C281.812 317.092 281.213 318.66 280.619 320.22C281.168 319.269 281.63 318.47 281.748 318.369C284.329 314.875 291.08 309.507 295.157 310.83C295.827 311.071 296.425 311.467 296.912 311.993C297.4 312.518 297.765 313.162 297.985 313.881C298.205 314.6 298.274 315.378 298.189 316.166C298.103 316.953 297.864 317.732 297.488 318.451C295.979 321.544 292.384 323.433 289.454 324.256C286.524 325.08 281.119 324.224 279.253 323.906C278.682 325.513 278.105 327.129 277.615 328.715C277.303 329.803 276.94 330.828 276.677 331.934C276.415 333.04 276.13 334.099 275.86 335.166C275.407 337.238 274.931 339.365 274.534 341.39C274.25 342.789 274.001 344.129 273.752 345.469C274.386 343.909 275.7 340.862 275.83 340.62C277.786 337.322 280.449 334.522 283.563 332.488C283.764 332.108 284 331.747 284.265 331.41C284.743 330.756 285.333 330.201 285.998 329.783C286.663 329.364 287.387 329.091 288.123 328.982C288.859 328.872 289.59 328.928 290.269 329.146C290.948 329.365 291.559 329.74 292.062 330.248C295.005 333.397 293.13 341.874 291.123 345.745C290.995 345.966 289.474 348.327 288.487 349.796C289.18 349.007 289.851 348.239 290.569 347.442C291.985 345.846 293.443 344.298 295.002 342.627C295.776 341.851 296.561 341.058 297.358 340.26C298.155 339.463 299.031 338.7 299.874 337.907C301.855 336.106 303.905 334.355 306.058 332.665C304.893 331.494 300.825 327.242 299.861 324.386C298.897 321.53 298.445 317.531 300.188 314.562C300.578 313.853 301.094 313.223 301.703 312.713C302.312 312.202 303.001 311.823 303.723 311.599C304.446 311.376 305.187 311.313 305.899 311.415C306.61 311.516 307.276 311.781 307.853 312.19C311.263 314.771 310.582 323.304 309.117 327.385C309.021 327.636 307.675 330.483 306.908 332.034C308.188 331.017 309.468 330 310.795 329.022C314.623 326.18 318.555 323.433 322.485 320.672C323.686 319.825 324.878 318.961 326.072 318.11C325.648 317.696 320.713 312.751 319.62 309.571C318.641 306.74 318.203 302.715 319.947 299.746C320.337 299.038 320.853 298.408 321.462 297.897C322.071 297.387 322.759 297.008 323.482 296.784C324.204 296.56 324.946 296.497 325.657 296.599C326.368 296.701 327.034 296.965 327.611 297.375C331.014 299.951 330.341 308.488 328.875 312.57C328.758 312.876 326.813 316.964 326.277 317.979C328.906 316.099 331.506 314.202 334.002 312.245C337.406 309.598 340.668 306.732 343.765 303.666C343.57 303.473 338.385 298.362 337.266 295.088C336.294 292.261 335.849 288.232 337.593 285.263C337.984 284.556 338.5 283.927 339.109 283.417C339.718 282.908 340.406 282.529 341.129 282.305C341.851 282.082 342.592 282.019 343.303 282.12C344.014 282.221 344.68 282.484 345.257 282.892C348.672 285.464 347.987 294.005 346.521 298.087C346.407 298.405 344.305 302.799 343.879 303.572C344.061 303.394 344.258 303.225 344.44 303.047C347.475 299.894 350.274 296.491 352.804 292.879C354.216 290.896 355.48 288.93 356.67 286.989C355.598 286.155 350.756 282.283 349.441 279.485C348.127 276.687 347.288 272.929 348.752 269.81C349.069 269.065 349.522 268.382 350.083 267.806C350.643 267.23 351.298 266.773 352.004 266.465C352.71 266.158 353.452 266.007 354.181 266.022C354.91 266.037 355.61 266.218 356.235 266.552C359.947 268.695 360.135 277.13 359.078 281.31C359.017 281.536 358.201 283.806 357.585 285.456C358.1 284.564 358.667 283.667 359.157 282.818C361.002 279.624 362.508 276.585 363.834 273.896C364.571 272.362 365.215 270.955 365.805 269.642C365.226 268.175 362.912 262.308 363.023 259.03C363.133 255.753 364.091 251.797 366.652 249.572C367.24 249.029 367.915 248.612 368.632 248.348C369.349 248.084 370.093 247.979 370.815 248.04C371.537 248.101 372.221 248.327 372.823 248.702C373.424 249.077 373.93 249.594 374.306 250.219C376.464 254.059 372.96 262.117 370.27 265.525C370.039 265.822 365.949 270.043 365.914 269.966L365.884 269.881C365.339 271.151 364.739 272.516 364.064 273.995C362.79 276.714 361.336 279.782 359.541 283.028C357.651 286.546 355.581 289.965 353.342 293.268C350.852 296.983 348.079 300.489 345.057 303.743C345.02 303.783 344.982 303.822 344.941 303.858C346.131 303.151 349.492 301.274 349.765 301.16C353.566 299.549 361.553 298.745 364.001 302.356C364.391 302.971 364.644 303.682 364.746 304.444C364.847 305.205 364.794 306 364.589 306.777C364.385 307.553 364.034 308.293 363.559 308.95C363.084 309.606 362.496 310.163 361.833 310.586C359.052 312.299 355.3 311.855 352.63 310.857Z" fill="#475780"/>
<path d="M300.756 254.401C300.672 254.41 302.425 248.784 302.574 248.44C304.272 244.436 309.67 237.505 314.055 237.59C314.779 237.627 315.47 237.829 316.083 238.182C316.696 238.534 317.218 239.031 317.613 239.638C318.009 240.246 318.271 240.951 318.381 241.709C318.491 242.466 318.447 243.258 318.252 244.035C317.525 247.352 314.41 250.142 311.705 251.74C308.525 253.631 300.756 254.401 300.756 254.401Z" fill="#475780"/>
<g filter="url(#filter1_dd_33928_271994)">
<path d="M184.061 228.533C184.061 228.533 132.709 229.213 131.109 232.869C129.509 236.525 122.205 280.805 121.749 296.069C121.293 311.333 121.069 321.405 122.661 323.229C124.253 325.053 149.141 339.437 149.141 339.437C149.141 339.437 137.501 380.293 141.141 381.669C144.781 383.045 167.165 388.741 181.541 388.973C195.917 389.205 210.077 389.197 211.221 389.197C212.365 389.197 249.109 390.565 261.893 387.597C274.677 384.629 278.549 384.397 278.549 379.381C278.549 374.365 275.349 368.181 275.125 367.061C274.901 365.941 283.805 279.405 278.781 258.181C273.757 236.957 267.141 228.733 262.117 227.365C257.093 225.997 221.261 226.909 221.261 226.909L184.061 228.533Z" fill="#8DD0B8"/>
<path d="M230.923 389.956C225.323 389.956 219.075 389.868 212.339 389.676H211.227C208.667 389.676 195.227 389.676 181.547 389.452C166.931 389.22 144.563 383.452 141.011 382.116C140.211 381.828 138.395 381.14 143.411 360.028C145.603 350.732 148.211 341.476 148.691 339.708C145.851 338.068 123.931 325.348 122.387 323.572C120.699 321.644 120.891 312.372 121.371 296.14C121.835 280.676 129.259 236.212 130.763 232.764C132.363 229.06 175.443 228.3 184.075 228.188L221.275 226.588C222.747 226.548 257.275 225.692 262.251 227.06C265.339 227.86 273.155 232.612 279.203 258.164C283.339 275.652 278.139 336.356 276.179 359.204C275.803 363.596 275.531 366.772 275.555 367.084C275.735 367.641 275.943 368.188 276.179 368.724C277.155 371.124 278.979 375.636 278.979 379.46C278.979 384.26 275.723 384.964 266.043 387.148L262.043 388.068C256.523 389.332 245.731 389.956 230.923 389.956ZM244.003 227.06C233.131 227.06 221.483 227.348 221.275 227.356L184.075 228.956C164.315 229.22 132.571 230.556 131.483 233.052C129.987 236.468 122.619 280.724 122.155 296.132C121.755 309.596 121.403 321.228 122.955 323.02C124.227 324.476 142.427 335.148 149.355 339.14C149.432 339.185 149.492 339.254 149.525 339.337C149.559 339.419 149.564 339.51 149.539 339.596C143.851 359.508 139.219 380.532 141.291 381.332C144.819 382.652 167.035 388.38 181.555 388.612C195.243 388.828 208.667 388.836 211.227 388.836H212.363C236.771 389.524 254.331 388.956 261.803 387.236C263.267 386.892 264.611 386.596 265.843 386.316C275.299 384.18 278.155 383.532 278.155 379.404C278.155 375.74 276.371 371.332 275.411 368.964C275.15 368.376 274.926 367.772 274.739 367.156C274.699 366.924 274.811 365.516 275.363 359.076C277.315 336.26 282.507 275.66 278.395 258.276C272.451 233.14 264.963 228.564 262.019 227.756C259.915 227.228 252.179 227.06 244.003 227.06Z" fill="#475780"/>
<path d="M206.076 250.005C205.997 250.006 205.92 249.984 205.855 249.941C205.789 249.899 205.738 249.837 205.708 249.765C205.686 249.717 205.675 249.665 205.674 249.612C205.673 249.559 205.682 249.507 205.702 249.458C205.721 249.409 205.75 249.364 205.787 249.326C205.823 249.288 205.867 249.258 205.916 249.237C207.735 248.46 209.503 247.57 211.212 246.573C211.257 246.547 211.308 246.53 211.36 246.523C211.412 246.516 211.465 246.52 211.516 246.533C211.567 246.547 211.615 246.571 211.656 246.603C211.698 246.635 211.733 246.675 211.76 246.721C211.786 246.767 211.803 246.817 211.81 246.869C211.816 246.922 211.813 246.975 211.799 247.026C211.785 247.076 211.762 247.124 211.729 247.166C211.697 247.208 211.657 247.243 211.612 247.269C209.875 248.281 208.077 249.184 206.228 249.973C206.18 249.995 206.128 250.006 206.076 250.005Z" fill="#475780"/>
<path d="M213.829 245.828C213.763 245.827 213.698 245.811 213.64 245.781C213.581 245.75 213.531 245.706 213.493 245.652C213.436 245.563 213.416 245.455 213.439 245.351C213.461 245.248 213.524 245.157 213.613 245.1C219.972 240.864 225.555 235.566 230.117 229.436C230.147 229.393 230.186 229.356 230.23 229.328C230.275 229.299 230.325 229.28 230.377 229.271C230.429 229.262 230.482 229.264 230.534 229.276C230.585 229.288 230.634 229.309 230.677 229.34C230.72 229.37 230.757 229.408 230.785 229.451C230.813 229.495 230.832 229.544 230.841 229.596C230.85 229.647 230.849 229.7 230.837 229.751C230.825 229.802 230.803 229.85 230.773 229.892C226.15 236.101 220.494 241.47 214.053 245.764C213.987 245.808 213.908 245.83 213.829 245.828Z" fill="#475780"/>
<path d="M218.532 248.069C218.46 248.069 218.39 248.049 218.328 248.012C218.266 247.976 218.215 247.924 218.18 247.861C218.155 247.815 218.139 247.764 218.133 247.712C218.128 247.659 218.132 247.606 218.147 247.556C218.162 247.505 218.187 247.458 218.22 247.417C218.253 247.376 218.294 247.342 218.34 247.317C222.34 245.173 227.02 238.637 227.068 238.573C227.096 238.525 227.134 238.484 227.179 238.452C227.224 238.42 227.276 238.397 227.33 238.386C227.384 238.374 227.44 238.374 227.495 238.385C227.549 238.397 227.6 238.419 227.645 238.452C227.69 238.484 227.728 238.525 227.756 238.573C227.785 238.621 227.803 238.674 227.809 238.729C227.816 238.784 227.811 238.84 227.795 238.893C227.779 238.946 227.752 238.995 227.716 239.037C227.524 239.309 222.916 245.789 218.716 248.021C218.66 248.053 218.597 248.07 218.532 248.069Z" fill="#475780"/>
<path d="M194.763 312.341C194.679 312.34 194.598 312.312 194.53 312.262C194.462 312.212 194.413 312.141 194.387 312.061L193.043 307.885C193.026 307.835 193.019 307.782 193.022 307.73C193.026 307.677 193.04 307.626 193.064 307.578C193.088 307.531 193.121 307.49 193.162 307.456C193.202 307.422 193.249 307.396 193.299 307.381C193.4 307.348 193.51 307.357 193.604 307.405C193.699 307.453 193.77 307.536 193.803 307.637L195.147 311.813C195.18 311.914 195.172 312.023 195.124 312.118C195.076 312.212 194.992 312.284 194.891 312.317C194.85 312.333 194.807 312.341 194.763 312.341Z" fill="#475780"/>
<path d="M202.093 335.094C202.008 335.094 201.926 335.066 201.858 335.016C201.791 334.966 201.741 334.895 201.717 334.814L195.765 316.342C195.732 316.236 195.743 316.121 195.794 316.022C195.846 315.924 195.935 315.85 196.041 315.818C196.147 315.785 196.262 315.795 196.36 315.847C196.458 315.899 196.532 315.988 196.565 316.094L202.517 334.574C202.548 334.674 202.538 334.783 202.49 334.877C202.443 334.971 202.36 335.043 202.261 335.078L202.093 335.094Z" fill="#475780"/>
<path d="M203.924 335.549C203.847 335.552 203.771 335.53 203.708 335.485C203.664 335.457 203.625 335.421 203.594 335.378C203.564 335.335 203.542 335.287 203.53 335.235C203.518 335.184 203.516 335.131 203.525 335.079C203.534 335.027 203.553 334.977 203.58 334.933L209.516 325.581C209.543 325.535 209.579 325.496 209.622 325.464C209.665 325.433 209.714 325.411 209.765 325.399C209.817 325.387 209.87 325.385 209.922 325.395C209.974 325.404 210.024 325.424 210.068 325.453C210.157 325.51 210.22 325.6 210.244 325.703C210.268 325.806 210.251 325.914 210.196 326.005L204.26 335.365C204.224 335.421 204.174 335.467 204.115 335.499C204.057 335.531 203.991 335.548 203.924 335.549Z" fill="#475780"/>
<path d="M217.388 330.069C217.31 330.072 217.233 330.051 217.167 330.01C217.101 329.968 217.048 329.908 217.016 329.837C216.985 329.765 216.975 329.686 216.988 329.609C217.002 329.532 217.038 329.461 217.092 329.405L231.492 313.197C231.563 313.117 231.663 313.069 231.77 313.063C231.876 313.057 231.981 313.094 232.06 313.165C232.14 313.236 232.188 313.336 232.194 313.442C232.2 313.549 232.163 313.653 232.092 313.733L217.692 329.941C217.654 329.983 217.607 330.016 217.555 330.038C217.502 330.06 217.445 330.071 217.388 330.069Z" fill="#475780"/>
<path d="M211.228 389.644H211.116L180.132 380.612C180.081 380.597 180.034 380.573 179.993 380.54C179.952 380.507 179.918 380.467 179.893 380.421C179.868 380.374 179.852 380.324 179.846 380.272C179.84 380.219 179.845 380.167 179.86 380.116C179.873 380.065 179.897 380.017 179.93 379.976C179.963 379.934 180.003 379.9 180.05 379.874C180.096 379.849 180.147 379.833 180.2 379.828C180.252 379.823 180.305 379.828 180.356 379.844L211.332 388.86C211.438 388.875 211.534 388.931 211.598 389.017C211.663 389.102 211.691 389.21 211.676 389.316C211.661 389.422 211.605 389.518 211.519 389.583C211.433 389.647 211.326 389.675 211.22 389.66L211.228 389.644Z" fill="#475780"/>
<path d="M176.597 379.557H176.485L171.173 378.005C171.066 377.975 170.976 377.904 170.922 377.808C170.868 377.712 170.855 377.599 170.885 377.493C170.914 377.387 170.985 377.297 171.081 377.243C171.177 377.189 171.29 377.175 171.397 377.205L176.709 378.757C176.759 378.772 176.806 378.796 176.847 378.829C176.888 378.862 176.922 378.902 176.947 378.949C176.973 378.995 176.988 379.045 176.994 379.097C177 379.15 176.995 379.202 176.981 379.253C176.959 379.339 176.91 379.415 176.84 379.47C176.771 379.526 176.685 379.556 176.597 379.557Z" fill="#475780"/>
<path d="M183.739 127.037C183.739 127.037 167.619 123.333 164.539 127.477C161.459 131.621 167.595 135.541 166.723 136.413C165.851 137.285 147.107 146.869 148.627 156.245C150.147 165.621 162.795 175.205 163.235 177.845C163.675 180.485 148.627 181.333 146.667 185.253C144.707 189.173 141.867 207.701 158.219 213.805C174.571 219.909 195.019 209.661 200.715 209.661C206.411 209.661 212.051 220.781 218.587 220.125C222.569 219.67 226.23 217.723 228.835 214.677C228.835 214.677 235.587 224.053 245.395 220.125C255.203 216.197 266.539 202.469 261.747 198.333C256.955 194.197 251.499 192.885 254.987 189.181C258.475 185.477 265.667 175.669 264.587 167.165C263.507 158.661 253.467 158.013 249.547 155.397C245.627 152.781 253.907 148.421 253.691 141.229C253.475 134.037 248.235 122.029 221.651 114.029C195.067 106.029 181.987 109.885 180.675 116.645C180.265 118.495 180.331 120.419 180.867 122.236C181.403 124.054 182.391 125.706 183.739 127.037Z" fill="#475780"/>
<path d="M240.661 221.453C234.429 221.453 230.029 216.709 228.853 215.285C226.207 218.221 222.579 220.087 218.653 220.533C215.013 220.901 211.717 217.869 208.541 214.933C205.821 212.421 203.245 210.053 200.741 210.053C199.213 210.053 196.469 210.853 192.997 211.877C183.837 214.557 169.989 218.605 158.109 214.173C152.429 212.053 148.509 208.285 146.397 202.973C143.597 195.837 144.973 187.773 146.333 185.069C147.453 182.837 152.221 181.589 156.429 180.493C159.365 179.693 163.013 178.773 162.829 177.901C162.645 177.029 161.021 175.301 159.077 173.205C155.165 168.973 149.245 162.581 148.229 156.325C146.893 148.125 160.029 140.093 164.981 137.069C165.669 136.645 166.325 136.269 166.429 136.141C166.169 135.702 165.874 135.285 165.549 134.893C164.221 133.165 161.997 130.261 164.213 127.253C166.901 123.605 178.613 125.653 182.549 126.397C181.461 125.025 180.695 123.426 180.306 121.72C179.917 120.013 179.915 118.24 180.301 116.533C180.54 115.503 180.996 114.537 181.639 113.698C182.282 112.859 183.097 112.167 184.029 111.669C190.693 107.669 204.461 108.357 221.781 113.613C249.429 121.997 253.901 134.509 254.109 141.229C254.213 144.845 252.277 147.733 250.717 150.029C249.653 151.629 248.741 152.973 248.933 153.957C248.994 154.187 249.101 154.402 249.249 154.589C249.396 154.776 249.579 154.931 249.789 155.045C251.124 155.816 252.537 156.444 254.005 156.917C258.541 158.597 264.181 160.693 264.997 167.101C266.069 175.461 259.397 185.077 255.301 189.437C254.999 189.687 254.754 190 254.584 190.353C254.415 190.707 254.323 191.093 254.317 191.485C254.445 192.653 256.021 193.717 258.021 195.053C259.412 195.959 260.748 196.947 262.021 198.013C262.563 198.528 262.958 199.178 263.166 199.896C263.374 200.615 263.388 201.376 263.205 202.101C262.197 208.117 253.293 217.389 245.565 220.501C244.005 221.127 242.341 221.45 240.661 221.453ZM228.861 214.253C228.922 214.254 228.983 214.269 229.037 214.299C229.091 214.328 229.138 214.37 229.173 214.421C229.245 214.509 235.869 223.493 245.269 219.733C252.789 216.725 261.445 207.733 262.413 201.965C262.661 200.477 262.357 199.349 261.501 198.613C260.25 197.575 258.938 196.613 257.573 195.733C255.405 194.277 253.693 193.125 253.517 191.597C253.508 191.086 253.612 190.58 253.821 190.115C254.03 189.649 254.338 189.234 254.725 188.901C258.453 184.901 265.245 175.301 264.205 167.213C263.445 161.293 258.053 159.293 253.725 157.685C252.198 157.191 250.729 156.537 249.341 155.733C249.044 155.56 248.786 155.329 248.581 155.054C248.376 154.78 248.229 154.466 248.149 154.133C247.893 152.829 248.845 151.405 250.053 149.605C251.549 147.381 253.405 144.613 253.309 141.253C253.109 134.749 248.725 122.621 221.549 114.381C204.445 109.189 190.917 108.453 184.445 112.357C183.609 112.798 182.877 113.412 182.298 114.158C181.719 114.905 181.305 115.766 181.085 116.685C180.683 118.475 180.739 120.338 181.25 122.1C181.76 123.862 182.708 125.467 184.005 126.765C184.071 126.825 184.116 126.905 184.133 126.993C184.151 127.081 184.139 127.172 184.101 127.253C184.06 127.333 183.994 127.396 183.912 127.434C183.831 127.472 183.74 127.481 183.653 127.461C179.237 126.445 167.261 124.525 164.885 127.741C163.029 130.269 164.885 132.669 166.213 134.429C167.013 135.445 167.565 136.189 167.013 136.725C166.506 137.113 165.971 137.463 165.413 137.773C161.053 140.437 147.813 148.541 149.037 156.213C150.013 162.229 155.829 168.517 159.685 172.677C161.965 175.141 163.469 176.765 163.637 177.789C163.901 179.389 160.845 180.189 156.621 181.285C152.773 182.285 147.989 183.533 147.021 185.445C145.757 187.973 144.429 195.885 147.109 202.693C148.085 205.196 149.598 207.456 151.541 209.312C153.485 211.168 155.811 212.576 158.357 213.437C169.989 217.781 183.677 213.773 192.757 211.125C196.293 210.093 199.077 209.269 200.757 209.269C203.573 209.269 206.261 211.741 209.101 214.357C212.149 217.165 215.301 220.061 218.589 219.733C222.457 219.279 226.015 217.389 228.557 214.437C228.59 214.385 228.635 214.342 228.687 214.31C228.74 214.278 228.799 214.258 228.861 214.253Z" fill="#475780"/>
<path d="M186.644 196.964C186.644 196.964 181.196 230.964 180.98 232.052C180.764 233.14 190.58 242.948 203.86 241.204C211.639 240.269 218.789 236.463 223.908 230.532L219.772 196.748C219.772 196.748 208.436 202.196 201.46 201.98C194.484 201.764 186.644 196.964 186.644 196.964Z" fill="#FCFFFC"/>
<path d="M200.723 241.814C193.586 241.697 186.769 238.831 181.691 233.814C180.467 232.51 180.555 232.094 180.587 231.934C180.795 230.87 186.187 197.206 186.243 196.862C186.255 196.797 186.282 196.736 186.322 196.684C186.362 196.632 186.414 196.59 186.474 196.563C186.534 196.535 186.599 196.523 186.665 196.526C186.731 196.529 186.795 196.548 186.851 196.582C186.931 196.63 194.691 201.326 201.475 201.542C208.259 201.758 219.483 196.406 219.595 196.35C219.652 196.32 219.715 196.305 219.779 196.305C219.843 196.305 219.906 196.32 219.963 196.35C220.018 196.381 220.064 196.425 220.099 196.478C220.134 196.531 220.156 196.591 220.163 196.654L224.307 230.43C224.314 230.482 224.31 230.535 224.297 230.585C224.283 230.636 224.259 230.684 224.227 230.726C219.025 236.718 211.79 240.576 203.915 241.558C202.858 241.713 201.792 241.799 200.723 241.814ZM186.947 197.606C186.203 202.238 181.571 231.118 181.347 232.134C181.515 233.126 190.811 242.534 203.747 240.814C211.353 239.853 218.349 236.156 223.427 230.414L219.443 197.334C217.139 198.398 207.691 202.566 201.451 202.374C195.395 202.19 188.811 198.678 186.947 197.606Z" fill="#475780"/>
<path d="M184.404 215.205L207.356 210.765L186.644 196.965L184.404 215.205Z" fill="#475780"/>
<path d="M184.405 215.605C184.305 215.602 184.209 215.565 184.133 215.501C184.088 215.456 184.054 215.402 184.033 215.343C184.012 215.283 184.005 215.219 184.013 215.157L186.245 196.917C186.253 196.849 186.279 196.785 186.319 196.73C186.36 196.675 186.414 196.632 186.477 196.605C186.537 196.573 186.604 196.557 186.673 196.557C186.741 196.557 186.808 196.573 186.869 196.605L207.573 210.413C207.64 210.455 207.693 210.516 207.724 210.589C207.755 210.662 207.764 210.743 207.749 210.821C207.732 210.899 207.693 210.97 207.636 211.026C207.579 211.081 207.507 211.118 207.429 211.133L184.485 215.573L184.405 215.605ZM186.965 197.661L184.869 214.709L206.317 210.557L186.965 197.661Z" fill="#475780"/>
<path d="M174.531 166.989C174.531 166.989 170.691 162.125 168.931 168.269C167.171 174.413 174.819 181.869 174.819 181.869L174.531 166.989Z" fill="#FCFFFC"/>
<path d="M174.788 182.237C174.693 182.233 174.603 182.196 174.532 182.133C174.212 181.821 166.7 174.469 168.54 168.165C169.124 166.165 170.004 165.037 171.156 164.813C173.028 164.453 174.796 166.653 174.868 166.749C174.924 166.817 174.955 166.902 174.956 166.989L175.212 181.837C175.212 181.916 175.189 181.994 175.146 182.06C175.104 182.127 175.043 182.18 174.972 182.213C174.912 182.23 174.85 182.238 174.788 182.237ZM171.588 165.565C171.497 165.557 171.406 165.557 171.316 165.565C170.516 165.725 169.804 166.693 169.316 168.357C167.932 173.109 172.58 178.805 174.404 180.797L174.164 167.109C173.676 166.597 172.572 165.565 171.556 165.565H171.588Z" fill="#475780"/>
<path d="M229.548 166.989C229.548 166.989 233.388 162.125 235.148 168.269C236.908 174.413 229.26 181.869 229.26 181.869L229.548 166.989Z" fill="#FCFFFC"/>
<path d="M229.293 182.236C229.24 182.245 229.186 182.245 229.133 182.236C229.059 182.205 228.997 182.153 228.954 182.086C228.911 182.019 228.89 181.94 228.893 181.86L229.149 167.012C229.151 166.926 229.179 166.842 229.229 166.772C229.309 166.676 231.085 164.468 232.941 164.836C234.101 165.06 234.981 166.188 235.565 168.188C237.397 174.492 229.885 181.844 229.565 182.156C229.487 182.216 229.39 182.244 229.293 182.236ZM229.941 167.132L229.733 180.82C231.549 178.828 236.205 173.132 234.821 168.38C234.333 166.716 233.637 165.748 232.813 165.588C231.709 165.38 230.445 166.548 229.941 167.132Z" fill="#475780"/>
<path d="M186.596 136.253C186.596 136.253 175.604 146.933 174.012 150.133C172.42 153.333 173.06 189.797 174.812 193.333C176.564 196.869 194.084 210.541 196.948 211.653C199.812 212.765 206.348 213.885 211.444 211.333C216.54 208.781 228.804 195.725 230.084 192.381C231.364 189.037 229.764 150.781 228.964 147.141C228.164 143.501 208.932 130.357 200.772 129.725C192.612 129.093 186.596 136.253 186.596 136.253Z" fill="#FCFFFC"/>
<path d="M204.133 213.222C201.628 213.235 199.14 212.813 196.781 211.974C193.701 210.774 176.205 197.006 174.429 193.462C172.653 189.918 171.965 153.262 173.629 149.934C175.229 146.734 185.629 136.582 186.277 135.982C186.677 135.51 192.677 128.686 200.781 129.326C208.693 129.95 228.437 142.862 229.333 146.998C230.077 150.438 231.733 189.038 230.429 192.47C229.061 196.07 216.645 209.118 211.597 211.67C209.26 212.752 206.707 213.283 204.133 213.222ZM199.733 130.086C192.405 130.086 186.933 136.446 186.877 136.486C186.765 136.59 175.917 147.15 174.373 150.238C172.829 153.326 173.509 189.726 175.173 193.046C176.837 196.366 194.181 210.03 197.101 211.166C200.173 212.358 206.477 213.262 211.277 210.862C216.421 208.294 228.541 195.214 229.717 192.126C231.005 188.75 229.325 150.526 228.581 147.118C227.837 143.71 208.773 130.75 200.741 130.134C200.413 130.134 200.085 130.086 199.757 130.086H199.733Z" fill="#475780"/>
<path d="M195.236 129.724C195.236 129.724 211.7 144.748 223.54 145.324L235.388 145.9C235.388 145.9 209.388 142.436 201.3 124.82C201.3 124.82 192.348 117.332 195.236 129.724Z" fill="#475780"/>
<path d="M235.388 146.301L223.548 145.725C211.7 145.149 195.668 130.645 194.988 130.021C194.93 129.967 194.889 129.898 194.868 129.821C193.916 125.725 194.124 123.325 195.508 122.477C197.556 121.221 201.18 124.173 201.58 124.509C201.628 124.548 201.667 124.597 201.692 124.653C209.596 141.869 235.204 145.453 235.46 145.509C235.563 145.521 235.658 145.573 235.724 145.654C235.789 145.735 235.821 145.838 235.812 145.941C235.8 146.044 235.75 146.138 235.671 146.205C235.592 146.272 235.491 146.306 235.388 146.301ZM195.596 129.501C196.94 130.701 212.452 144.365 223.596 144.909L230.284 145.237C222.284 143.221 206.916 137.805 201.012 125.053C199.972 124.197 197.228 122.349 195.932 123.141C195.196 123.589 194.58 125.045 195.596 129.517V129.501Z" fill="#475780"/>
<path d="M205.732 175.997C205.631 175.997 205.534 175.959 205.46 175.891C205.386 175.823 205.34 175.729 205.332 175.629L204.06 159.541C204.056 159.488 204.062 159.435 204.078 159.385C204.094 159.335 204.12 159.289 204.154 159.248C204.189 159.208 204.23 159.175 204.277 159.151C204.324 159.127 204.375 159.113 204.428 159.109C204.48 159.104 204.533 159.111 204.583 159.127C204.634 159.143 204.68 159.169 204.72 159.203C204.76 159.237 204.793 159.279 204.817 159.326C204.841 159.373 204.856 159.424 204.86 159.477L206.132 175.565C206.136 175.617 206.13 175.67 206.114 175.72C206.098 175.771 206.072 175.817 206.038 175.857C206.004 175.897 205.962 175.93 205.915 175.954C205.868 175.978 205.816 175.993 205.764 175.997H205.732Z" fill="#475780"/>
<path d="M202.044 183.646C199.82 183.646 197.692 181.246 197.604 181.118C197.566 181.079 197.537 181.033 197.518 180.982C197.499 180.932 197.49 180.878 197.493 180.824C197.495 180.77 197.508 180.717 197.531 180.668C197.555 180.62 197.587 180.576 197.628 180.54C197.668 180.505 197.716 180.478 197.767 180.461C197.818 180.444 197.873 180.437 197.926 180.442C197.98 180.447 198.032 180.462 198.08 180.488C198.128 180.513 198.17 180.548 198.204 180.59C198.204 180.59 200.188 182.846 202.044 182.846C203.572 182.846 205.884 179.87 206.652 178.726C206.68 178.681 206.717 178.643 206.76 178.614C206.804 178.584 206.852 178.563 206.904 178.553C206.955 178.542 207.009 178.542 207.06 178.553C207.112 178.563 207.16 178.584 207.204 178.614C207.291 178.672 207.352 178.763 207.373 178.867C207.394 178.97 207.374 179.078 207.316 179.166C207.012 179.622 204.268 183.646 202.044 183.646Z" fill="#475780"/>
<path d="M199.822 189.368C200.289 189.226 200.763 189.083 201.252 188.985C206.063 187.868 211.314 192.529 211.541 192.728C211.58 192.763 211.612 192.806 211.635 192.854C211.658 192.901 211.671 192.953 211.674 193.006C211.676 193.058 211.669 193.111 211.651 193.161C211.634 193.211 211.606 193.256 211.571 193.296C211.536 193.335 211.493 193.367 211.445 193.39C211.398 193.412 211.346 193.426 211.293 193.428C211.241 193.431 211.188 193.423 211.138 193.406C211.088 193.388 211.043 193.361 211.003 193.326C210.985 193.264 205.837 188.748 201.431 189.766C198.258 190.612 195.226 191.92 192.434 193.648C192.341 193.707 192.228 193.727 192.121 193.703C192.013 193.679 191.919 193.614 191.86 193.521C191.801 193.428 191.781 193.315 191.805 193.208C191.829 193.1 191.894 193.007 191.987 192.947C194.445 191.443 197.076 190.241 199.822 189.368Z" fill="#475780"/>
<path d="M205.53 154.305C205.53 154.305 212.135 152.091 214.677 151.385C217.219 150.679 223.226 155.495 223.226 155.495C223.226 155.495 219.007 150.948 216.431 149.607C213.855 148.267 206.968 150.389 205.914 152.083C204.86 153.776 203.669 152.86 205.53 154.305Z" fill="#475780"/>
<path d="M205.416 154.656C205.371 154.649 205.327 154.635 205.287 154.614C204.398 153.93 204.136 153.727 204.141 153.401C204.163 153.277 204.216 153.161 204.294 153.063C204.373 152.965 204.476 152.888 204.592 152.841C204.993 152.619 205.33 152.296 205.569 151.904C206.708 150.079 213.783 147.841 216.596 149.309C219.21 150.661 223.332 155.093 223.508 155.277C223.575 155.352 223.612 155.449 223.612 155.55C223.612 155.651 223.575 155.748 223.507 155.823C223.438 155.898 223.344 155.943 223.243 155.951C223.143 155.959 223.042 155.928 222.963 155.865C221.341 154.565 216.711 151.314 214.769 151.828C212.242 152.488 205.715 154.694 205.65 154.715C205.568 154.716 205.487 154.696 205.416 154.656ZM205.103 153.419L205.617 153.829C206.742 153.446 212.288 151.595 214.578 150.992C215.893 150.645 217.904 151.524 219.686 152.565C218.646 151.564 217.494 150.688 216.252 149.954C213.866 148.726 207.194 150.783 206.252 152.261C205.974 152.75 205.575 153.159 205.093 153.449L205.103 153.419Z" fill="#475780"/>
<path d="M194.89 156.111C194.467 155.488 193.875 154.999 193.182 154.703C192.49 154.407 191.727 154.316 190.985 154.441C188.301 154.812 177.203 160.277 179.235 159.872C181.267 159.467 189.67 157.631 191.859 157.196C192.934 157.05 193.967 156.681 194.89 156.111Z" fill="#475780"/>
<path d="M179.313 160.273C179.207 160.31 179.092 160.317 178.982 160.293C178.872 160.269 178.771 160.214 178.69 160.136C178.641 160.077 178.607 160.007 178.592 159.931C178.577 159.856 178.581 159.778 178.604 159.705C178.927 158.825 188.715 154.356 190.915 154.056C191.734 153.916 192.576 154.016 193.339 154.345C194.102 154.674 194.754 155.217 195.215 155.908C195.265 155.992 195.283 156.091 195.266 156.187C195.249 156.283 195.199 156.37 195.123 156.432C194.148 157.038 193.058 157.436 191.922 157.6C190.808 157.822 188.077 158.365 185.409 158.978C182.742 159.591 180.309 160.075 179.313 160.273ZM190.835 154.888C188.858 155.282 183.614 157.704 180.935 159.118L185.261 158.192C187.937 157.618 190.667 157.034 191.781 156.812C192.655 156.658 193.504 156.385 194.303 156C193.902 155.542 193.389 155.196 192.814 154.995C192.24 154.793 191.623 154.743 191.024 154.85L190.835 154.888Z" fill="#475780"/>
<path d="M222.276 166.836C219.872 167.381 217.414 167.65 214.949 167.636C211.749 167.476 208.893 166.516 210.149 167.948C211.405 169.38 213.973 170.66 217.949 169.86C221.925 169.06 223.388 168.268 222.276 166.836Z" fill="#475780"/>
<path d="M193.444 166.836C191.039 167.381 188.581 167.65 186.116 167.636C182.916 167.476 180.068 166.516 181.316 167.948C182.564 169.38 185.14 170.66 189.124 169.86C193.108 169.06 194.532 168.268 193.444 166.836Z" fill="#475780"/>
<path d="M140.436 258.645C140.436 258.645 145.236 232.245 147.412 229.661C149.588 227.077 173.348 207.645 174.652 206.341C175.956 205.037 185.332 190.861 185.772 192.605C186.212 194.349 184.684 201.981 181.844 206.117C179.004 210.253 175.092 215.277 175.092 215.277C175.092 215.277 189.732 218.981 190.532 219.853C191.332 220.725 196.372 231.573 196.636 232.925C197.1 235.261 196.428 237.765 194.46 237.941C192.668 238.093 180.948 232.053 180.948 232.053L171.604 233.333C171.604 233.333 164.852 241.613 160.268 243.141C158.212 243.893 156.098 244.477 153.948 244.885L154.172 261.013L140.436 258.645Z" fill="#FCFFFC"/>
<path d="M154.172 261.445H154.1L140.372 259.045C140.266 259.026 140.171 258.965 140.108 258.877C140.051 258.79 140.028 258.684 140.044 258.581C140.244 257.501 144.884 232.077 147.108 229.413C148.564 227.661 159.172 218.813 166.916 212.357C170.836 209.085 173.94 206.501 174.372 206.061C174.804 205.621 176.028 203.909 177.492 201.869C183.188 193.933 184.876 191.917 185.716 192.077C185.825 192.1 185.924 192.153 186.002 192.231C186.08 192.31 186.134 192.409 186.156 192.517C186.628 194.405 185.052 202.157 182.156 206.357C179.852 209.709 176.812 213.685 175.756 215.045C179.164 215.917 189.98 218.733 190.828 219.573C191.676 220.413 196.756 231.437 197.036 232.861C197.224 233.609 197.26 234.387 197.144 235.15C197.027 235.912 196.759 236.643 196.356 237.301C196.139 237.597 195.861 237.844 195.541 238.025C195.221 238.205 194.866 238.316 194.5 238.349C192.676 238.509 182.5 233.325 180.9 232.477L171.812 233.733C170.924 234.813 164.78 242.093 160.396 243.549C158.422 244.247 156.404 244.816 154.356 245.253L154.572 261.037C154.571 261.096 154.558 261.155 154.533 261.208C154.509 261.262 154.473 261.31 154.428 261.349C154.355 261.407 154.266 261.441 154.172 261.445ZM140.932 258.317L153.732 260.533L153.516 244.885C153.517 244.787 153.553 244.693 153.618 244.62C153.683 244.546 153.771 244.498 153.868 244.485C155.994 244.079 158.084 243.502 160.116 242.757C164.524 241.285 171.196 233.157 171.26 233.077C171.325 232.999 171.416 232.948 171.516 232.933L180.932 231.661C181.012 231.646 181.094 231.66 181.164 231.701C185.66 234.013 193.26 237.661 194.46 237.541C194.715 237.518 194.963 237.441 195.185 237.314C195.407 237.187 195.599 237.013 195.748 236.805C196.084 236.238 196.304 235.611 196.396 234.959C196.488 234.306 196.45 233.642 196.284 233.005C195.996 231.565 191.012 220.853 190.292 220.133C189.612 219.533 180.548 217.069 175.004 215.661C174.94 215.644 174.881 215.612 174.833 215.567C174.784 215.522 174.748 215.466 174.726 215.403C174.705 215.341 174.699 215.274 174.71 215.208C174.721 215.143 174.748 215.081 174.788 215.029C174.788 214.973 178.732 209.973 181.524 205.893C184.316 201.813 185.628 194.957 185.436 192.973C184.22 193.869 180.316 199.317 178.148 202.333C176.604 204.485 175.388 206.181 174.948 206.621C174.508 207.061 171.524 209.549 167.436 212.965C160.148 219.037 149.14 228.221 147.724 229.917C146.02 231.957 142.292 250.733 140.932 258.317Z" fill="#475780"/>
<path d="M196.668 233.334C196.603 233.335 196.539 233.32 196.481 233.289C196.424 233.258 196.375 233.213 196.34 233.158C193.804 229.422 189.58 223.326 189.044 222.902C188.508 222.478 181.748 221.462 175.74 220.654C175.634 220.639 175.539 220.582 175.474 220.497C175.41 220.411 175.382 220.304 175.396 220.198C175.411 220.091 175.468 219.996 175.553 219.931C175.639 219.867 175.746 219.839 175.852 219.854C178.86 220.262 188.748 221.63 189.548 222.254C190.348 222.878 196.324 231.686 196.996 232.654C197.027 232.697 197.048 232.746 197.059 232.798C197.07 232.85 197.071 232.903 197.062 232.955C197.052 233.007 197.032 233.057 197.003 233.101C196.974 233.146 196.936 233.184 196.892 233.214C196.831 233.274 196.753 233.316 196.668 233.334Z" fill="#475780"/>
<path d="M196.132 236.637C196.074 236.637 196.016 236.624 195.964 236.599C195.911 236.574 195.865 236.538 195.828 236.493C194.116 234.517 190.692 230.621 189.98 230.021C189.404 229.557 182.652 227.829 176.58 226.437C176.477 226.412 176.388 226.348 176.333 226.258C176.278 226.168 176.26 226.06 176.284 225.957C176.295 225.905 176.317 225.857 176.347 225.814C176.378 225.771 176.416 225.734 176.461 225.707C176.506 225.679 176.556 225.661 176.608 225.653C176.66 225.645 176.713 225.648 176.764 225.661C178.884 226.141 189.564 228.613 190.492 229.413C191.42 230.213 196.228 235.733 196.436 235.973C196.471 236.012 196.497 236.057 196.514 236.107C196.531 236.156 196.538 236.209 196.534 236.261C196.53 236.313 196.516 236.364 196.492 236.411C196.469 236.457 196.436 236.499 196.396 236.533C196.324 236.6 196.23 236.637 196.132 236.637Z" fill="#475780"/>
<path d="M196.388 337.204C196.388 337.204 179.268 334.004 178.588 333.78C177.908 333.556 165.788 329.9 164.188 329.212C162.588 328.524 143.188 325.108 142.276 326.476C141.364 327.844 140.452 335.836 140.22 336.516C139.988 337.196 138.164 340.396 138.62 342.228C138.866 343.891 138.866 345.582 138.62 347.244C138.62 347.244 138.388 357.972 141.124 358.204C143.86 358.436 146.38 348.156 146.38 348.156C146.38 348.156 150.26 350.444 158.244 350.9C166.228 351.356 173.996 347.476 173.996 347.476L195.244 352.532L196.388 337.204Z" fill="#FCFFFC"/>
<path d="M141.235 358.605H141.115C138.155 358.357 138.203 349.093 138.235 347.237C138.477 345.608 138.477 343.953 138.235 342.325C137.835 340.725 138.947 338.325 139.547 337.069C139.683 336.765 139.795 336.525 139.843 336.397C139.891 336.269 140.043 335.285 140.187 334.293C140.747 330.605 141.299 327.213 141.939 326.253C143.139 324.461 163.171 328.341 164.339 328.845C165.507 329.349 173.019 331.661 176.611 332.765L178.683 333.397C179.203 333.565 189.587 335.533 196.435 336.813C196.533 336.83 196.62 336.883 196.681 336.962C196.741 337.04 196.771 337.138 196.763 337.237L195.643 352.533C195.64 352.591 195.624 352.648 195.597 352.699C195.569 352.75 195.53 352.794 195.483 352.829C195.437 352.864 195.384 352.888 195.327 352.899C195.27 352.91 195.211 352.908 195.155 352.893L174.067 347.909C172.995 348.413 165.683 351.733 158.243 351.309C151.715 350.933 147.923 349.373 146.667 348.757C146.027 351.229 143.899 358.605 141.235 358.605ZM143.923 326.541C143.475 326.494 143.022 326.557 142.603 326.725C142.027 327.589 141.355 332.029 141.003 334.413C140.803 335.765 140.699 336.421 140.627 336.645C140.555 336.869 140.451 337.061 140.291 337.405C139.779 338.509 138.691 340.821 139.035 342.133C139.294 343.846 139.294 345.588 139.035 347.301C138.947 351.557 139.555 357.701 141.187 357.805C142.947 357.917 145.075 351.909 145.987 348.069C146.003 348.008 146.032 347.951 146.072 347.903C146.112 347.855 146.162 347.816 146.219 347.789C146.275 347.761 146.337 347.747 146.399 347.747C146.462 347.747 146.523 347.761 146.579 347.789C146.579 347.789 150.491 350.029 158.267 350.477C166.043 350.925 173.739 347.133 173.819 347.093C173.905 347.065 173.997 347.065 174.083 347.093L194.883 352.005L195.963 337.541C193.083 337.005 179.115 334.389 178.459 334.165L176.403 333.533C172.515 332.341 165.291 330.125 164.043 329.589C162.483 328.909 148.435 326.541 143.923 326.541Z" fill="#475780"/>
<path d="M137.181 253.988L160.133 258.188L159.277 272.532C159.277 272.532 164.357 274.932 165.901 289.1C167.445 303.268 171.869 336.084 170.765 338.516C169.661 340.948 162.813 351.556 146.901 352.22C130.989 352.884 122.373 338.3 120.829 333.652C119.285 329.004 127.461 298.604 127.901 295.956C128.341 293.308 130.549 275.156 132.541 272.092C133.768 270.199 135.255 268.486 136.957 267.004L137.181 253.988Z" fill="#8DD0B8"/>
<path d="M145.844 352.653C130.012 352.653 121.844 337.861 120.452 333.797C119.204 330.061 123.828 311.141 126.308 300.997C126.948 298.373 127.412 296.477 127.508 295.917C127.604 295.357 127.716 294.517 127.892 293.269C128.74 287.189 130.516 274.533 132.204 271.909C133.418 270.031 134.885 268.33 136.564 266.853L136.78 253.997C136.78 253.938 136.793 253.881 136.818 253.828C136.843 253.776 136.879 253.729 136.924 253.693C136.97 253.657 137.023 253.631 137.079 253.617C137.136 253.603 137.195 253.602 137.252 253.613L160.228 257.805C160.325 257.822 160.413 257.875 160.474 257.954C160.534 258.032 160.563 258.13 160.556 258.229L159.692 272.341C160.756 273.029 164.924 276.477 166.3 289.093C166.684 292.629 167.26 297.397 167.9 302.445C170.244 321.901 171.972 336.933 171.164 338.717C171.1 338.845 164.964 351.901 146.948 352.645L145.844 352.653ZM137.572 254.469L137.356 267.029C137.356 267.087 137.343 267.144 137.318 267.197C137.293 267.249 137.257 267.296 137.212 267.333C135.543 268.789 134.084 270.469 132.876 272.325C131.276 274.797 129.46 287.813 128.684 293.365C128.508 294.621 128.372 295.565 128.292 296.037C128.196 296.629 127.732 298.533 127.084 301.165C124.796 310.533 120.036 330.021 121.212 333.549C122.556 337.549 130.852 352.509 146.884 351.829C161.428 351.229 168.788 341.909 170.404 338.365C171.204 336.645 168.804 316.925 167.076 302.525C166.468 297.469 165.892 292.701 165.476 289.165C163.972 275.405 159.116 272.933 159.076 272.909C159.005 272.873 158.947 272.818 158.907 272.75C158.867 272.682 158.848 272.603 158.852 272.525L159.716 258.517L137.572 254.469Z" fill="#475780"/>
<path d="M155.332 271.181C154.032 271.175 152.734 271.093 151.444 270.933C151.339 270.921 151.243 270.868 151.177 270.785C151.112 270.703 151.081 270.598 151.092 270.493C151.106 270.387 151.161 270.292 151.245 270.226C151.328 270.16 151.434 270.13 151.54 270.141C152.798 270.294 154.065 270.374 155.332 270.381C155.438 270.381 155.54 270.423 155.615 270.498C155.69 270.573 155.732 270.675 155.732 270.781C155.732 270.887 155.69 270.989 155.615 271.064C155.54 271.139 155.438 271.181 155.332 271.181Z" fill="#475780"/>
<path d="M146.092 270.013H146.004C142.894 269.324 139.828 268.453 136.82 267.405C136.723 267.367 136.645 267.292 136.602 267.197C136.559 267.103 136.555 266.995 136.59 266.897C136.626 266.799 136.698 266.719 136.792 266.673C136.885 266.628 136.993 266.62 137.092 266.653C140.065 267.689 143.097 268.55 146.172 269.229C146.223 269.24 146.272 269.262 146.315 269.292C146.359 269.322 146.396 269.361 146.424 269.406C146.452 269.45 146.471 269.5 146.48 269.552C146.489 269.604 146.488 269.657 146.476 269.709C146.456 269.796 146.407 269.873 146.337 269.928C146.267 269.984 146.181 270.013 146.092 270.013Z" fill="#475780"/>
<path d="M263.492 261.197L261.212 320.085C261.212 320.085 258.7 320.317 257.788 321.453C257.181 322.24 256.645 323.081 256.188 323.965C256.188 323.965 233.14 324.877 222.18 328.077C215.89 329.865 209.778 332.233 203.924 335.149L193.876 334.933L191.82 361.405L205.292 361.861C205.292 361.861 211.908 365.741 242.036 368.485C272.164 371.229 286.092 371.909 289.284 368.253C292.476 364.597 293.852 358.893 294.308 355.933C294.764 352.973 300.244 334.701 300.244 308.221C300.244 281.741 275.364 243.421 269.884 234.725C264.404 226.029 258.684 226.725 254.82 227.653" fill="#8DD0B8"/>
<path d="M276.508 371.148C268.868 371.148 257.684 370.3 242.004 368.876C213.636 366.292 206.1 362.74 205.204 362.252L191.836 361.796C191.782 361.797 191.727 361.785 191.677 361.763C191.627 361.741 191.583 361.708 191.546 361.667C191.51 361.626 191.483 361.578 191.466 361.526C191.45 361.474 191.445 361.419 191.452 361.364L193.476 334.932C193.482 334.83 193.529 334.734 193.605 334.665C193.681 334.596 193.782 334.56 193.884 334.564L203.828 334.788C209.683 331.891 215.788 329.53 222.068 327.732C232.356 324.732 253.492 323.732 255.94 323.612C256.381 322.769 256.895 321.966 257.476 321.212C258.276 320.212 260.068 319.852 260.828 319.74L263.092 261.188C263.092 261.135 263.103 261.082 263.124 261.034C263.145 260.985 263.177 260.941 263.216 260.905C263.255 260.869 263.301 260.841 263.351 260.824C263.402 260.806 263.455 260.8 263.508 260.804C263.561 260.806 263.612 260.819 263.66 260.841C263.708 260.863 263.751 260.894 263.786 260.933C263.822 260.971 263.85 261.017 263.868 261.066C263.886 261.115 263.894 261.168 263.892 261.22L261.612 320.108C261.609 320.205 261.571 320.297 261.504 320.368C261.438 320.438 261.349 320.483 261.252 320.492C260.596 320.548 258.764 320.884 258.1 321.708C257.514 322.475 256.994 323.292 256.548 324.148C256.517 324.214 256.469 324.269 256.408 324.309C256.347 324.348 256.277 324.37 256.204 324.372C255.98 324.372 233.076 325.316 222.292 328.468C216.03 330.26 209.944 332.616 204.108 335.508C204.046 335.539 203.978 335.556 203.908 335.556L194.244 335.34L192.252 361.02L205.3 361.46C205.367 361.465 205.433 361.485 205.492 361.516C205.556 361.516 212.484 365.396 242.076 368.084C272.076 370.812 285.964 371.444 288.988 367.988C292.436 364.052 293.628 357.716 293.916 355.868C293.988 355.364 294.196 354.5 294.5 353.18C298.043 338.456 299.837 323.365 299.844 308.22C299.844 291.308 289.852 266.972 270.156 235.892L269.548 234.94C263.86 225.932 257.812 227.356 254.916 228.036C254.812 228.06 254.703 228.043 254.612 227.988C254.521 227.932 254.455 227.844 254.428 227.74C254.416 227.689 254.415 227.635 254.424 227.583C254.433 227.531 254.452 227.482 254.48 227.437C254.508 227.392 254.545 227.354 254.589 227.323C254.632 227.293 254.681 227.272 254.732 227.26C259.428 226.156 264.948 226.156 270.228 234.508L270.828 235.468C290.612 266.668 300.644 291.156 300.644 308.22C300.634 323.426 298.835 338.579 295.284 353.364C294.988 354.612 294.78 355.516 294.708 355.988C294.412 357.892 293.18 364.412 289.588 368.516C287.98 370.348 283.908 371.148 276.508 371.148Z" fill="#475780"/>
<path d="M261.212 320.485C261.142 320.486 261.073 320.469 261.012 320.433C260.951 320.398 260.902 320.347 260.868 320.285C260.822 320.207 260.804 320.115 260.817 320.025C260.83 319.934 260.873 319.851 260.94 319.789L274.18 307.469C274.216 307.432 274.26 307.402 274.308 307.382C274.356 307.362 274.408 307.352 274.46 307.352C274.512 307.352 274.564 307.362 274.612 307.382C274.66 307.402 274.703 307.432 274.74 307.469C274.777 307.506 274.807 307.551 274.828 307.599C274.848 307.648 274.858 307.7 274.858 307.753C274.858 307.806 274.848 307.858 274.828 307.907C274.807 307.956 274.777 308 274.74 308.037L262.74 319.237L275.132 315.637C275.238 315.608 275.352 315.621 275.448 315.675C275.544 315.729 275.614 315.819 275.644 315.925C275.674 316.031 275.66 316.145 275.606 316.241C275.552 316.337 275.462 316.408 275.356 316.437L261.348 320.501L261.212 320.485Z" fill="#475780"/>
<path d="M279.604 315.149C279.498 315.163 279.391 315.134 279.306 315.068C279.221 315.003 279.166 314.907 279.152 314.801C279.138 314.695 279.167 314.587 279.232 314.503C279.297 314.418 279.394 314.363 279.5 314.349L283.924 313.069C283.974 313.053 284.027 313.047 284.08 313.053C284.132 313.058 284.183 313.074 284.23 313.099C284.276 313.124 284.317 313.159 284.349 313.201C284.382 313.242 284.406 313.29 284.42 313.341C284.45 313.443 284.438 313.552 284.387 313.645C284.336 313.738 284.25 313.807 284.148 313.837L279.716 315.117C279.681 315.136 279.643 315.147 279.604 315.149Z" fill="#475780"/>
<path d="M276.732 327.789H276.588C270.78 325.549 256.308 324.397 256.156 324.389C256.104 324.385 256.053 324.37 256.006 324.346C255.959 324.322 255.917 324.289 255.883 324.249C255.849 324.209 255.823 324.163 255.807 324.113C255.79 324.063 255.784 324.01 255.788 323.957C255.793 323.905 255.807 323.853 255.831 323.807C255.855 323.76 255.888 323.718 255.928 323.684C255.968 323.65 256.015 323.624 256.065 323.607C256.115 323.591 256.168 323.585 256.22 323.589C256.82 323.637 270.956 324.765 276.876 327.037C276.929 327.047 276.979 327.066 277.024 327.095C277.069 327.124 277.108 327.161 277.138 327.205C277.169 327.249 277.19 327.298 277.201 327.351C277.213 327.403 277.214 327.457 277.204 327.509C277.195 327.562 277.175 327.612 277.146 327.657C277.118 327.702 277.08 327.74 277.036 327.771C276.992 327.801 276.943 327.823 276.891 327.834C276.839 327.846 276.785 327.847 276.732 327.837V327.789Z" fill="#475780"/>
<path d="M280.844 339.66C280.782 339.66 280.721 339.645 280.665 339.617C280.61 339.59 280.562 339.55 280.524 339.5C279.924 338.7 279.268 337.972 278.572 337.244C278.508 337.167 278.475 337.067 278.481 336.967C278.487 336.866 278.531 336.771 278.604 336.701C278.677 336.631 278.773 336.591 278.874 336.59C278.975 336.588 279.073 336.625 279.148 336.692C279.856 337.431 280.526 338.206 281.156 339.012C281.221 339.095 281.251 339.201 281.239 339.306C281.227 339.411 281.174 339.506 281.092 339.572C281.021 339.627 280.934 339.658 280.844 339.66Z" fill="#475780"/>
<path d="M276.067 334.789C275.975 334.787 275.885 334.756 275.811 334.701C271.749 331.411 267.063 328.978 262.035 327.549C261.983 327.537 261.933 327.514 261.889 327.483C261.845 327.452 261.808 327.412 261.779 327.367C261.751 327.321 261.731 327.27 261.722 327.217C261.714 327.164 261.715 327.109 261.727 327.057C261.739 327.004 261.762 326.955 261.793 326.911C261.824 326.867 261.864 326.829 261.909 326.801C261.955 326.772 262.006 326.753 262.059 326.744C262.112 326.735 262.167 326.737 262.219 326.749C267.367 328.203 272.165 330.688 276.323 334.053C276.388 334.105 276.435 334.176 276.458 334.256C276.481 334.336 276.478 334.422 276.449 334.5C276.421 334.579 276.369 334.646 276.301 334.694C276.232 334.741 276.151 334.766 276.067 334.765V334.789Z" fill="#475780"/>
<path d="M203.924 360.206C203.818 360.206 203.716 360.164 203.641 360.089C203.566 360.014 203.524 359.912 203.524 359.806L203.332 337.67C203.331 337.617 203.34 337.565 203.359 337.516C203.379 337.467 203.407 337.422 203.444 337.384C203.48 337.347 203.524 337.316 203.572 337.295C203.62 337.274 203.672 337.263 203.724 337.262C203.83 337.262 203.932 337.304 204.007 337.379C204.082 337.454 204.124 337.556 204.124 337.662L204.356 359.798C204.356 359.905 204.314 360.007 204.239 360.083C204.165 360.16 204.063 360.204 203.956 360.206H203.924Z" fill="#475780"/>
<path d="M202.324 354.724H192.724C192.618 354.724 192.516 354.682 192.441 354.607C192.366 354.532 192.324 354.43 192.324 354.324C192.324 354.218 192.366 354.116 192.441 354.041C192.516 353.966 192.618 353.924 192.724 353.924H202.324C202.43 353.924 202.532 353.966 202.607 354.041C202.682 354.116 202.724 354.218 202.724 354.324C202.722 354.429 202.679 354.53 202.605 354.604C202.53 354.679 202.43 354.722 202.324 354.724Z" fill="#475780"/>
<path d="M195.02 341.708C194.918 341.709 194.82 341.67 194.745 341.6C194.671 341.53 194.626 341.434 194.62 341.332C194.617 341.28 194.624 341.228 194.641 341.179C194.658 341.129 194.685 341.084 194.72 341.045C194.755 341.006 194.798 340.975 194.845 340.953C194.892 340.931 194.944 340.918 194.996 340.916L198.876 340.684C198.928 340.681 198.981 340.688 199.031 340.705C199.081 340.723 199.127 340.749 199.166 340.784C199.205 340.819 199.237 340.862 199.26 340.909C199.283 340.956 199.297 341.008 199.3 341.06C199.304 341.166 199.268 341.269 199.198 341.348C199.127 341.427 199.029 341.476 198.924 341.484L195.044 341.708H195.02Z" fill="#475780"/>
</g>
<defs>
<filter id="filter0_dd_33928_271994" x="0" y="34" width="404" height="179" filterUnits="userSpaceOnUse" color-interpolation-filters="sRGB">
<feFlood flood-opacity="0" result="BackgroundImageFix"/>
<feColorMatrix in="SourceAlpha" type="matrix" values="0 0 0 0 0 0 0 0 0 0 0 0 0 0 0 0 0 0 127 0" result="hardAlpha"/>
<feMorphology radius="5" operator="erode" in="SourceAlpha" result="effect1_dropShadow_33928_271994"/>
<feOffset dy="20"/>
<feGaussianBlur stdDeviation="12.5"/>
<feColorMatrix type="matrix" values="0 0 0 0 0 0 0 0 0 0 0 0 0 0 0 0 0 0 0.1 0"/>
<feBlend mode="normal" in2="BackgroundImageFix" result="effect1_dropShadow_33928_271994"/>
<feColorMatrix in="SourceAlpha" type="matrix" values="0 0 0 0 0 0 0 0 0 0 0 0 0 0 0 0 0 0 127 0" result="hardAlpha"/>
<feMorphology radius="5" operator="erode" in="SourceAlpha" result="effect2_dropShadow_33928_271994"/>
<feOffset dy="10"/>
<feGaussianBlur stdDeviation="5"/>
<feColorMatrix type="matrix" values="0 0 0 0 0 0 0 0 0 0 0 0 0 0 0 0 0 0 0.04 0"/>
<feBlend mode="normal" in2="effect1_dropShadow_33928_271994" result="effect2_dropShadow_33928_271994"/>
<feBlend mode="normal" in="SourceGraphic" in2="effect2_dropShadow_33928_271994" result="shape"/>
</filter>
<filter id="filter1_dd_33928_271994" x="100.242" y="109.1" width="220.402" height="320.857" filterUnits="userSpaceOnUse" color-interpolation-filters="sRGB">
<feFlood flood-opacity="0" result="BackgroundImageFix"/>
<feColorMatrix in="SourceAlpha" type="matrix" values="0 0 0 0 0 0 0 0 0 0 0 0 0 0 0 0 0 0 127 0" result="hardAlpha"/>
<feMorphology radius="5" operator="erode" in="SourceAlpha" result="effect1_dropShadow_33928_271994"/>
<feOffset dy="20"/>
<feGaussianBlur stdDeviation="12.5"/>
<feColorMatrix type="matrix" values="0 0 0 0 0 0 0 0 0 0 0 0 0 0 0 0 0 0 0.1 0"/>
<feBlend mode="normal" in2="BackgroundImageFix" result="effect1_dropShadow_33928_271994"/>
<feColorMatrix in="SourceAlpha" type="matrix" values="0 0 0 0 0 0 0 0 0 0 0 0 0 0 0 0 0 0 127 0" result="hardAlpha"/>
<feMorphology radius="5" operator="erode" in="SourceAlpha" result="effect2_dropShadow_33928_271994"/>
<feOffset dy="10"/>
<feGaussianBlur stdDeviation="5"/>
<feColorMatrix type="matrix" values="0 0 0 0 0 0 0 0 0 0 0 0 0 0 0 0 0 0 0.04 0"/>
<feBlend mode="normal" in2="effect1_dropShadow_33928_271994" result="effect2_dropShadow_33928_271994"/>
<feBlend mode="normal" in="SourceGraphic" in2="effect2_dropShadow_33928_271994" result="shape"/>
</filter>
</defs>
</svg>
