<svg xmlns="http://www.w3.org/2000/svg" xmlns:xlink="http://www.w3.org/1999/xlink" width="178" height="142" viewBox="0 0 178 142"><rect width="100%" height="100%" fill="#DDDDDD"/><path d="M41.62 77.73L44.87 77.73L44.87 80.04L34.87 80.04L34.87 77.73L38.53 77.73L38.53 67.19Q38.53 66.56 38.57 65.90L38.57 65.90L35.97 68.08Q35.74 68.25 35.53 68.29Q35.31 68.34 35.11 68.30Q34.92 68.26 34.77 68.17Q34.62 68.08 34.54 67.96L34.54 67.96L33.57 66.63L39.08 61.94L41.62 61.94L41.62 77.73ZM47.59 61.96L60.08 61.96L60.08 63.30Q60.08 63.90 59.96 64.27Q59.83 64.64 59.71 64.89L59.71 64.89L52.86 78.99Q52.64 79.43 52.26 79.73Q51.87 80.04 51.22 80.04L51.22 80.04L48.98 80.04L55.97 66.23Q56.21 65.80 56.44 65.44Q56.67 65.09 56.96 64.76L56.96 64.76L48.31 64.76Q48.02 64.76 47.81 64.55Q47.59 64.34 47.59 64.05L47.59 64.05L47.59 61.96ZM68.18 77.83L68.18 77.83Q68.94 77.83 69.52 77.61Q70.09 77.39 70.49 77.00Q70.88 76.61 71.08 76.08Q71.28 75.54 71.28 74.91L71.28 74.91Q71.28 73.43 70.46 72.66Q69.63 71.90 68.18 71.90L68.18 71.90Q66.73 71.90 65.91 72.66Q65.08 73.43 65.08 74.91L65.08 74.91Q65.08 75.54 65.28 76.08Q65.48 76.61 65.88 77.00Q66.27 77.39 66.84 77.61Q67.42 77.83 68.18 77.83ZM68.18 64.09L68.18 64.09Q67.49 64.09 66.99 64.30Q66.49 64.51 66.16 64.87Q65.83 65.23 65.68 65.69Q65.52 66.15 65.52 66.66L65.52 66.66Q65.52 67.20 65.65 67.71Q65.78 68.21 66.09 68.61Q66.41 69 66.92 69.24Q67.43 69.48 68.18 69.48L68.18 69.48Q68.93 69.48 69.44 69.24Q69.96 69 70.27 68.61Q70.58 68.21 70.71 67.71Q70.84 67.20 70.84 66.66L70.84 66.66Q70.84 66.15 70.68 65.69Q70.52 65.23 70.19 64.87Q69.87 64.51 69.37 64.30Q68.87 64.09 68.18 64.09ZM71.23 70.61L71.23 70.61Q72.88 71.15 73.67 72.26Q74.46 73.36 74.46 74.96L74.46 74.96Q74.46 76.16 74 77.14Q73.54 78.11 72.72 78.80Q71.89 79.49 70.74 79.86Q69.58 80.24 68.18 80.24L68.18 80.24Q66.78 80.24 65.63 79.86Q64.47 79.49 63.64 78.80Q62.82 78.11 62.36 77.14Q61.91 76.16 61.91 74.96L61.91 74.96Q61.91 73.36 62.69 72.26Q63.48 71.15 65.13 70.61L65.13 70.61Q63.82 70.06 63.16 69.05Q62.51 68.04 62.51 66.61L62.51 66.61Q62.51 65.59 62.93 64.70Q63.34 63.81 64.09 63.16Q64.84 62.50 65.89 62.13Q66.93 61.76 68.18 61.76L68.18 61.76Q69.43 61.76 70.48 62.13Q71.52 62.50 72.27 63.16Q73.02 63.81 73.44 64.70Q73.86 65.59 73.86 66.61L73.86 66.61Q73.86 68.04 73.20 69.05Q72.54 70.06 71.23 70.61ZM94.66 75.90L93.02 77.51L88.78 73.28L84.51 77.54L82.87 75.93L87.14 71.64L83.07 67.56L84.69 65.94L88.77 70.01L92.82 65.96L94.47 67.59L90.41 71.65L94.66 75.90ZM111.77 77.73L115.02 77.73L115.02 80.04L105.02 80.04L105.02 77.73L108.68 77.73L108.68 67.19Q108.68 66.56 108.72 65.90L108.72 65.90L106.12 68.08Q105.89 68.25 105.68 68.29Q105.46 68.34 105.26 68.30Q105.07 68.26 104.92 68.17Q104.77 68.08 104.69 67.96L104.69 67.96L103.72 66.63L109.23 61.94L111.77 61.94L111.77 77.73ZM119.98 73.23L125.48 73.23L125.48 67.31Q125.48 66.48 125.59 65.46L125.59 65.46L119.98 73.23ZM128.17 73.23L130.44 73.23L130.44 75.01Q130.44 75.26 130.28 75.44Q130.12 75.63 129.82 75.63L129.82 75.63L128.17 75.63L128.17 80.04L125.48 80.04L125.48 75.63L117.86 75.63Q117.54 75.63 117.31 75.43Q117.07 75.24 117.01 74.95L117.01 74.95L116.68 73.39L125.24 61.95L128.17 61.95L128.17 73.23ZM138.71 77.16L143.34 77.16Q143.84 77.16 144.14 77.44Q144.43 77.73 144.43 78.19L144.43 78.19L144.43 80.04L132.03 80.04L132.03 79.01Q132.03 78.70 132.16 78.36Q132.29 78.01 132.58 77.74L132.58 77.74L138.07 72.24Q138.76 71.54 139.30 70.90Q139.84 70.26 140.21 69.64Q140.57 69.01 140.76 68.37Q140.96 67.73 140.96 67.01L140.96 67.01Q140.96 66.36 140.77 65.87Q140.58 65.38 140.24 65.04Q139.89 64.70 139.41 64.53Q138.93 64.36 138.33 64.36L138.33 64.36Q137.78 64.36 137.31 64.52Q136.84 64.68 136.48 64.96Q136.12 65.24 135.87 65.61Q135.62 65.99 135.49 66.44L135.49 66.44Q135.28 67.01 134.94 67.20Q134.61 67.39 133.97 67.29L133.97 67.29L132.34 67Q132.53 65.70 133.07 64.72Q133.61 63.74 134.41 63.08Q135.22 62.43 136.26 62.09Q137.31 61.76 138.51 61.76L138.51 61.76Q139.76 61.76 140.79 62.13Q141.83 62.50 142.57 63.18Q143.31 63.85 143.72 64.80Q144.13 65.75 144.13 66.91L144.13 66.91Q144.13 67.91 143.84 68.76Q143.54 69.61 143.05 70.39Q142.56 71.16 141.89 71.89Q141.23 72.61 140.51 73.36L140.51 73.36L136.43 77.53Q137.02 77.35 137.60 77.26Q138.18 77.16 138.71 77.16L138.71 77.16Z" fill="#999999"/></svg>