<svg width="81" height="81" viewBox="0 0 81 81" fill="none" xmlns="http://www.w3.org/2000/svg">
<ellipse cx="40.5" cy="40.4706" rx="40" ry="40.4706" fill="#F9FAFB"/>
<path d="M40.3333 25.3333C37.2569 25.3333 34.7065 27.6761 34.3724 30.6667H33C31.4593 30.6667 30.177 31.8215 30.0156 33.3555L28.349 49.3555C28.2616 50.1981 28.5355 51.0438 29.1042 51.6758C29.6722 52.3058 30.4847 52.6667 31.3333 52.6667H33.6667V43C33.6667 41.7133 34.7133 40.6667 36 40.6667H46C47.2867 40.6667 48.3333 41.7133 48.3333 43V52.6667H50.6667C51.5153 52.6667 52.3272 52.3052 52.8958 51.6745C53.4638 51.0438 53.7384 50.1981 53.651 49.3555L51.9844 33.3555C51.823 31.8221 50.5407 30.6667 49 30.6667H47.6354C47.6561 30.8867 47.6667 31.1093 47.6667 31.3333V35.3333C47.6667 35.7013 47.368 36 47 36C46.632 36 46.3333 35.7013 46.3333 35.3333V35V31.3333C46.3333 28.0315 43.6351 25.3333 40.3333 25.3333ZM40.3333 27.3333C42.3265 27.3333 43.96 28.7674 44.2747 30.6667H37.7552C37.6992 30.88 37.6667 31.1027 37.6667 31.3333V35.3333C37.6667 35.7013 37.368 36 37 36C36.632 36 36.3333 35.7013 36.3333 35.3333V35V31.3333C36.3333 29.1125 38.1125 27.3333 40.3333 27.3333ZM36 42.6667C35.8167 42.6667 35.6667 42.8167 35.6667 43V52.6667H40V49.1914C39.412 48.9341 39 48.3487 39 47.6667C39 46.9847 39.412 46.3993 40 46.1419V42.6667H36ZM42 42.6667V46.1419C42.588 46.3999 43 46.9847 43 47.6667C43 48.3487 42.588 48.9341 42 49.1914V52.6667H46.3333V43C46.3333 42.8167 46.1833 42.6667 46 42.6667H42Z" fill="#14B8A6"/>
</svg>
