<svg width="81" height="81" viewBox="0 0 81 81" fill="none" xmlns="http://www.w3.org/2000/svg">
<ellipse cx="40.5" cy="40.4706" rx="40" ry="40.4706" fill="#F9FAFB"/>
<path d="M35.0664 28C34.2931 28 33.6667 28.6139 33.6667 29.3672V39.3333H37V38.7266C37 37.2199 38.2264 36 39.7331 36H48.3333V29.3672C48.3333 28.6139 47.7069 28 46.9336 28H35.0664ZM37.6667 30.6667H39C39.368 30.6667 39.6667 30.9653 39.6667 31.3333V32.6667C39.6667 33.0347 39.368 33.3333 39 33.3333H37.6667C37.2987 33.3333 37 33.0347 37 32.6667V31.3333C37 30.9653 37.2987 30.6667 37.6667 30.6667ZM43 30.6667H44.3333C44.7013 30.6667 45 30.9653 45 31.3333V32.6667C45 33.0347 44.7013 33.3333 44.3333 33.3333H43C42.632 33.3333 42.3333 33.0347 42.3333 32.6667V31.3333C42.3333 30.9653 42.632 30.6667 43 30.6667ZM39.7331 37.3333C38.9597 37.3333 38.3333 37.9599 38.3333 38.7266V51.9401C38.3333 52.7068 38.9597 53.3333 39.7331 53.3333H50.9336C51.7069 53.3333 52.3333 52.7068 52.3333 51.9401V38.7266C52.3333 37.9599 51.7069 37.3333 50.9336 37.3333H39.7331ZM42.3333 40H43.6667C44.0347 40 44.3333 40.2987 44.3333 40.6667V42C44.3333 42.368 44.0347 42.6667 43.6667 42.6667H42.3333C41.9653 42.6667 41.6667 42.368 41.6667 42V40.6667C41.6667 40.2987 41.9653 40 42.3333 40ZM47 40H48.3333C48.7013 40 49 40.2987 49 40.6667V42C49 42.368 48.7013 42.6667 48.3333 42.6667H47C46.632 42.6667 46.3333 42.368 46.3333 42V40.6667C46.3333 40.2987 46.632 40 47 40ZM30.3333 40.6667C29.6 40.6667 29 41.2667 29 42V52C29 52.7333 29.6 53.3333 30.3333 53.3333H37.3867C37.1401 52.9267 37 52.4468 37 51.9401V40.6667H30.3333ZM32.3333 43.3333H33.6667C34.0347 43.3333 34.3333 43.632 34.3333 44V45.3333C34.3333 45.7013 34.0347 46 33.6667 46H32.3333C31.9653 46 31.6667 45.7013 31.6667 45.3333V44C31.6667 43.632 31.9653 43.3333 32.3333 43.3333ZM42.3333 44H43.6667C44.0347 44 44.3333 44.2987 44.3333 44.6667V46C44.3333 46.368 44.0347 46.6667 43.6667 46.6667H42.3333C41.9653 46.6667 41.6667 46.368 41.6667 46V44.6667C41.6667 44.2987 41.9653 44 42.3333 44ZM47 44H48.3333C48.7013 44 49 44.2987 49 44.6667V46C49 46.368 48.7013 46.6667 48.3333 46.6667H47C46.632 46.6667 46.3333 46.368 46.3333 46V44.6667C46.3333 44.2987 46.632 44 47 44ZM32.3333 48H33.6667C34.0347 48 34.3333 48.2987 34.3333 48.6667V50C34.3333 50.368 34.0347 50.6667 33.6667 50.6667H32.3333C31.9653 50.6667 31.6667 50.368 31.6667 50V48.6667C31.6667 48.2987 31.9653 48 32.3333 48ZM42.3333 48H43.6667C44.0347 48 44.3333 48.2987 44.3333 48.6667V50C44.3333 50.368 44.0347 50.6667 43.6667 50.6667H42.3333C41.9653 50.6667 41.6667 50.368 41.6667 50V48.6667C41.6667 48.2987 41.9653 48 42.3333 48ZM47 48H48.3333C48.7013 48 49 48.2987 49 48.6667V50C49 50.368 48.7013 50.6667 48.3333 50.6667H47C46.632 50.6667 46.3333 50.368 46.3333 50V48.6667C46.3333 48.2987 46.632 48 47 48Z" fill="#14B8A6"/>
</svg>
