<svg width="81" height="81" viewBox="0 0 81 81" fill="none" xmlns="http://www.w3.org/2000/svg">
<ellipse cx="40.5" cy="40.4706" rx="40" ry="40.4706" fill="#F9FAFB"/>
<path d="M36.6667 26.6667C35.4167 26.6667 34.3933 27.6546 34.3359 28.8906C33.8502 29.1212 33.4577 29.5147 33.2266 30H32C31.8675 29.9981 31.7359 30.0226 31.613 30.072C31.49 30.1214 31.3781 30.1948 31.2837 30.2878C31.1893 30.3809 31.1144 30.4917 31.0632 30.614C31.0121 30.7363 30.9858 30.8675 30.9858 31C30.9858 31.1325 31.0121 31.2637 31.0632 31.386C31.1144 31.5082 31.1893 31.6191 31.2837 31.7121C31.3781 31.8052 31.49 31.8786 31.613 31.928C31.7359 31.9774 31.8675 32.0019 32 32H34.3333C34.8977 32 35.3333 32.4357 35.3333 33C35.3333 33.0779 35.3231 33.151 35.3086 33.2226C35.299 33.267 35.2846 33.3098 35.2695 33.3516C35.263 33.3707 35.2564 33.39 35.2487 33.4088C35.0962 33.7611 34.7506 34 34.3333 34H32C31.7545 33.9971 31.5166 34.0846 31.3314 34.2458C31.1463 34.407 31.0269 34.6307 30.996 34.8742C30.9651 35.1177 31.0249 35.3641 31.1639 35.5664C31.303 35.7688 31.5116 35.9129 31.75 35.9713C30.5885 36.8646 29.5829 38.1295 29.6732 40.2604C29.7138 41.2251 30.0536 42.1062 30.599 42.8242C31.399 41.1662 33.9312 40.4473 36.5898 39.6966C40.4198 38.6153 44.3631 37.4943 44.9258 33.9023C44.9625 33.6003 44.9883 33.2891 44.9883 32.9557C44.9876 29.5464 41.8513 26.6667 38.1393 26.6667H36.6667ZM44.6849 37.3177C42.8142 39.3144 39.6705 40.2118 36.9505 40.9792C34.3329 41.7182 32.0564 42.3675 31.7201 43.6654C31.6834 43.7731 31.6653 43.8862 31.6667 44V44.7995L30.3333 48H29.3333C29.2008 47.9981 29.0693 48.0226 28.9463 48.072C28.8233 48.1214 28.7114 48.1948 28.617 48.2878C28.5227 48.3809 28.4477 48.4917 28.3966 48.614C28.3454 48.7363 28.3191 48.8675 28.3191 49C28.3191 49.1325 28.3454 49.2637 28.3966 49.386C28.4477 49.5082 28.5227 49.6191 28.617 49.7121C28.7114 49.8052 28.8233 49.8786 28.9463 49.928C29.0693 49.9774 29.2008 50.0019 29.3333 50H31C31.0884 49.9999 31.1764 49.9881 31.2617 49.9648C31.706 49.887 32.1082 49.6412 32.3633 49.2578L34.6081 45.8906C34.8499 45.5274 34.9815 45.1025 34.9948 44.6667H39C39 45.9273 39.4424 47.086 40.1771 48H38.6667C38.114 48 37.6667 48.448 37.6667 49C37.6667 49.552 38.114 50 38.6667 50H46.6667C47.2193 50 47.6667 49.552 47.6667 49V48.8229C47.8071 48.71 47.9394 48.5884 48.0677 48.4622C48.5854 49.3726 49.5539 50 50.6667 50C52.3117 50 53.6667 48.645 53.6667 47V45.6667C53.6685 45.5341 53.6441 45.4026 53.5946 45.2796C53.5452 45.1566 53.4719 45.0447 53.3788 44.9504C53.2858 44.856 53.1749 44.781 53.0527 44.7299C52.9304 44.6788 52.7992 44.6524 52.6667 44.6524C52.5341 44.6524 52.4029 44.6788 52.2807 44.7299C52.1584 44.781 52.0476 44.856 51.9545 44.9504C51.8615 45.0447 51.7881 45.1566 51.7387 45.2796C51.6893 45.4026 51.6648 45.5341 51.6667 45.6667V47C51.6667 47.5643 51.231 48 50.6667 48C50.1023 48 49.6667 47.5643 49.6667 47V45C49.667 44.9495 49.6635 44.899 49.6562 44.8489C49.6583 44.7878 49.6667 44.7283 49.6667 44.6667C49.6667 43.284 49.139 41.9719 48.181 40.9739C47.651 40.4219 45.8276 38.5137 44.6849 37.3177ZM29.3333 51.3333C29.2008 51.3314 29.0693 51.3559 28.9463 51.4053C28.8233 51.4548 28.7114 51.5281 28.617 51.6212C28.5227 51.7142 28.4477 51.8251 28.3966 51.9473C28.3454 52.0696 28.3191 52.2008 28.3191 52.3333C28.3191 52.4658 28.3454 52.5971 28.3966 52.7193C28.4477 52.8416 28.5227 52.9524 28.617 53.0455C28.7114 53.1385 28.8233 53.2119 28.9463 53.2613C29.0693 53.3107 29.2008 53.3352 29.3333 53.3333H52.6667C52.7992 53.3352 52.9307 53.3107 53.0537 53.2613C53.1767 53.2119 53.2886 53.1385 53.383 53.0455C53.4773 52.9524 53.5523 52.8416 53.6034 52.7193C53.6546 52.5971 53.6809 52.4658 53.6809 52.3333C53.6809 52.2008 53.6546 52.0696 53.6034 51.9473C53.5523 51.8251 53.4773 51.7142 53.383 51.6212C53.2886 51.5281 53.1767 51.4548 53.0537 51.4053C52.9307 51.3559 52.7992 51.3314 52.6667 51.3333H29.3333Z" fill="#14B8A6"/>
</svg>
