<svg width="81" height="82" viewBox="0 0 81 82" fill="none" xmlns="http://www.w3.org/2000/svg">
<ellipse cx="40.5" cy="41.4412" rx="40" ry="40.4706" fill="#F9FAFB"/>
<path d="M39.4813 29.0237C37.2251 29.3925 35.3501 30.3737 33.7688 32.0175C32.4813 33.3487 31.6563 34.8862 31.2126 36.7737C31.0438 37.48 31.0376 37.605 31.0376 38.93C31.0376 40.255 31.0438 40.38 31.2126 41.0862C31.6813 43.0925 32.5001 44.5675 33.9313 45.9987C35.4001 47.4612 36.9501 48.305 39.0188 48.755C39.5688 48.8737 39.8438 48.8925 41.0313 48.8925C42.3188 48.8925 42.4563 48.88 43.1563 48.7175C45.1563 48.2487 46.6376 47.43 48.0688 45.9987C49.5251 44.5362 50.3813 42.9737 50.8251 40.93C50.9438 40.3612 50.9626 40.0987 50.9626 38.93C50.9626 37.7612 50.9438 37.4987 50.8251 36.93C50.3813 34.8862 49.5251 33.3237 48.0688 31.8612C46.6313 30.43 45.1313 29.5987 43.1563 29.1487C42.5126 28.9987 42.2438 28.9737 41.2188 28.955C40.3938 28.9425 39.8626 28.9612 39.4813 29.0237ZM37.5063 41.6362C37.6251 41.7175 37.8626 41.8862 38.0376 42.0112C38.8813 42.6175 39.8876 42.93 41.0001 42.93C42.1126 42.93 43.1188 42.6175 43.9626 42.0112C44.6501 41.5175 44.7001 41.4925 44.9938 41.4925C45.7376 41.4925 46.2063 42.33 45.8001 42.93C45.4751 43.405 44.1938 44.1987 43.2251 44.5237C42.4688 44.7737 41.8563 44.8737 41.0001 44.8737C39.4501 44.8737 37.9813 44.3862 36.7688 43.4612C36.2251 43.0487 36.0626 42.8112 36.0626 42.4362C36.0626 41.6862 36.9001 41.2237 37.5063 41.6362Z" fill="#14B8A6"/>
<path d="M29.05 34.5487C28.1438 34.8424 27.3688 35.6362 27.1 36.5487C27.0188 36.8299 27 37.2549 27 38.9362C27 40.7674 27.0125 41.0237 27.1187 41.3612C27.4062 42.2799 28.1938 43.0612 29.1188 43.3299C29.35 43.3987 29.7125 43.4299 30.2313 43.4299C30.6562 43.4299 31 43.4174 31 43.4049C31 43.3924 30.9188 43.1924 30.825 42.9549C30.5875 42.3862 30.4125 41.7924 30.2438 40.9924C30.1188 40.4174 30.1 40.1549 30.1 38.9299C30.1 37.7049 30.1188 37.4424 30.2438 36.8674C30.4125 36.0674 30.5875 35.4737 30.825 34.9049C30.9188 34.6674 31 34.4674 31 34.4549C31 34.4424 30.6437 34.4299 30.2062 34.4362C29.6125 34.4362 29.3125 34.4674 29.05 34.5487Z" fill="#14B8A6"/>
<path d="M51.0312 34.5361C51.4187 35.4612 51.7687 36.7236 51.8749 37.6174C51.9062 37.9049 51.9374 38.4987 51.9374 38.9299C51.9374 39.3612 51.9062 39.9549 51.8749 40.2424C51.7874 40.9612 51.4812 42.1674 51.2187 42.8424C51.0999 43.1487 50.9999 43.4049 50.9999 43.4112C50.9999 43.4237 51.3687 43.4299 51.8124 43.4299C52.2624 43.4299 52.6249 43.4424 52.6249 43.4487C52.6249 43.4612 52.5687 43.6549 52.4937 43.8737C51.7687 46.0862 50.2249 47.9424 47.9687 49.3049C46.3812 50.2612 44.6437 50.7924 42.6187 50.9362C41.5562 51.0049 41.3812 51.0674 41.1437 51.4299C40.9437 51.7174 40.9437 52.2674 41.1437 52.5549C41.3999 52.9424 41.5999 53.0112 42.4249 52.9987C45.1937 52.9612 48.0624 51.9424 50.3749 50.1924C51.0249 49.6924 52.1312 48.6174 52.5999 48.0237C53.8187 46.4549 54.6062 44.6174 54.9062 42.6299C54.9749 42.1737 54.9999 41.3924 54.9999 39.4487C54.9999 37.0987 54.9874 36.8486 54.8812 36.4987C54.5937 35.5799 53.8062 34.7987 52.8812 34.5299C52.6499 34.4612 52.2874 34.4299 51.7624 34.4299C51.0499 34.4299 50.9874 34.4362 51.0312 34.5361Z" fill="#14B8A6"/>
<path d="M36.95 51.0549C36.65 51.2424 36.5 51.5237 36.5 51.9299C36.5 52.3362 36.65 52.6174 36.95 52.8049C37.1375 52.9174 37.2688 52.9299 38.25 52.9299C39.2313 52.9299 39.3625 52.9174 39.55 52.8049C39.85 52.6174 40 52.3362 40 51.9299C40 51.5237 39.85 51.2424 39.55 51.0549C39.3625 50.9424 39.2313 50.9299 38.25 50.9299C37.2688 50.9299 37.1375 50.9424 36.95 51.0549Z" fill="#14B8A6"/>
</svg>
