<svg width="81" height="82" viewBox="0 0 81 82" fill="none" xmlns="http://www.w3.org/2000/svg">
<ellipse cx="40.5" cy="41.4412" rx="40" ry="40.4706" fill="#F9FAFB"/>
<path d="M29.3094 29.0891C29.2391 29.1359 29.1359 29.2391 29.0891 29.3094C29.0047 29.4406 29 29.7172 29 38.8672C29 48.0172 29.0047 48.2937 29.0891 48.425C29.1359 48.4953 29.2391 48.5984 29.3094 48.6453C29.4406 48.7297 29.7594 48.7344 41 48.7344C52.2406 48.7344 52.5594 48.7297 52.6906 48.6453C52.7609 48.5984 52.8641 48.4953 52.9109 48.425C52.9953 48.2937 53 48.0172 53 38.8672C53 29.7172 52.9953 29.4406 52.9109 29.3094C52.8641 29.2391 52.7609 29.1359 52.6906 29.0891C52.5594 29.0047 52.2406 29 41 29C29.7594 29 29.4406 29.0047 29.3094 29.0891ZM42.7344 31.9859C43.0813 32.2016 43.0625 32.0187 43.0625 35.375C43.0625 38.7312 43.0813 38.5484 42.7344 38.7641L42.5703 38.8672H37.4844H32.3984L32.2344 38.7641C31.8875 38.5484 31.9062 38.7359 31.9062 35.3656C31.9062 32.5109 31.9109 32.3469 31.9953 32.2203C32.1031 32.0562 32.2531 31.9484 32.4406 31.9016C32.5203 31.8828 34.8313 31.8734 37.5781 31.8734L42.5703 31.8828L42.7344 31.9859ZM49.7656 31.9859C49.9813 32.1172 50.0938 32.3187 50.0938 32.5625C50.0938 32.8062 49.9813 33.0078 49.7656 33.1391C49.6016 33.2422 49.5828 33.2422 47.3281 33.2422C45.1391 33.2422 45.05 33.2375 44.9 33.1484C44.3656 32.825 44.4875 32.0516 45.0969 31.9016C45.1766 31.8828 46.2219 31.8687 47.4219 31.8734C49.5734 31.8828 49.6016 31.8828 49.7656 31.9859ZM49.7656 34.7891C49.8547 34.8453 49.9672 34.9578 50.0188 35.0422C50.2016 35.3562 50.0844 35.7687 49.7656 35.9609C49.6063 36.05 49.5312 36.0547 47.3281 36.0547C45.1391 36.0547 45.05 36.05 44.9 35.9609C44.3656 35.6375 44.4875 34.8641 45.0969 34.7141C45.1766 34.6953 46.2219 34.6812 47.4219 34.6859C49.5219 34.6953 49.6063 34.7 49.7656 34.7891ZM49.7656 37.6016C49.8547 37.6578 49.9672 37.7703 50.0188 37.8547C50.2016 38.1687 50.0844 38.5812 49.7656 38.7734C49.6063 38.8625 49.5312 38.8672 47.3281 38.8672C45.1391 38.8672 45.05 38.8625 44.9 38.7734C44.3656 38.45 44.4875 37.6766 45.0969 37.5266C45.1766 37.5078 46.2219 37.4937 47.4219 37.4984C49.5219 37.5078 49.6063 37.5125 49.7656 37.6016ZM39.9219 40.4141C40.0109 40.4703 40.1234 40.5828 40.1797 40.6719C40.2688 40.8312 40.2734 40.9062 40.2734 43.1094C40.2734 45.3641 40.2734 45.3828 40.1703 45.5469C39.9547 45.8984 40.2219 45.875 36.0688 45.875C32.5063 45.875 32.3469 45.8703 32.2156 45.7859C32.1453 45.7391 32.0422 45.6359 31.9953 45.5656C31.9109 45.4391 31.9062 45.3031 31.9062 43.1094V40.7891L32.0234 40.6109C32.0891 40.5172 32.15 40.4375 32.1547 40.4375C32.1594 40.4375 32.2484 40.4047 32.3516 40.3672C32.5109 40.3109 33.0922 40.3016 36.1484 40.3109C39.6828 40.3203 39.7625 40.3203 39.9219 40.4141ZM49.7656 40.4141C49.8547 40.4703 49.9672 40.5828 50.0234 40.6719C50.1125 40.8312 50.1172 40.9062 50.1172 43.1094C50.1172 45.3641 50.1172 45.3828 50.0141 45.5469C49.7984 45.8984 50.0656 45.875 45.9125 45.875C42.35 45.875 42.1906 45.8703 42.0594 45.7859C41.9891 45.7391 41.8859 45.6359 41.8391 45.5656C41.7547 45.4391 41.75 45.3031 41.75 43.1094V40.7891L41.8672 40.6109C41.9328 40.5172 41.9938 40.4375 41.9984 40.4375C42.0031 40.4375 42.0922 40.4047 42.1953 40.3672C42.3547 40.3109 42.9359 40.3016 45.9922 40.3109C49.5266 40.3203 49.6063 40.3203 49.7656 40.4141Z" fill="#14B8A6"/>
<path d="M33.2656 35.375V37.4844H37.4844H41.7031V35.375V33.2656H37.4844H33.2656V35.375Z" fill="#14B8A6"/>
<path d="M33.2656 43.0859V44.5156H36.1016H38.9375L38.9281 43.0953L38.9141 41.6797L36.0922 41.6656L33.2656 41.6562V43.0859Z" fill="#14B8A6"/>
<path d="M43.1094 43.0859V44.5156H45.9453H48.7812L48.7719 43.0953L48.7578 41.6797L45.9359 41.6656L43.1094 41.6562V43.0859Z" fill="#14B8A6"/>
<path d="M37.4845 50.8672V51.5938H36.3079C35.2064 51.5938 35.1173 51.5984 34.9767 51.6875C34.5736 51.9359 34.5689 52.6203 34.9673 52.8969L35.122 53H40.9954C46.2736 53 46.8829 52.9906 46.9907 52.925C47.1923 52.8078 47.2954 52.6297 47.3189 52.3672C47.3423 52.0625 47.2392 51.8187 47.0236 51.6875C46.8829 51.5984 46.7939 51.5938 45.6923 51.5938H44.5157V50.8672V50.1406H41.0001H37.4845V50.8672Z" fill="#14B8A6"/>
</svg>
