<svg width="81" height="82" viewBox="0 0 81 82" fill="none" xmlns="http://www.w3.org/2000/svg">
<ellipse cx="40.5" cy="41.4118" rx="40" ry="40.4706" fill="#F9FAFB"/>
<path d="M43.8359 29.0516C43.7328 29.075 43.475 29.1828 43.2641 29.2859C42.4109 29.7078 41.7828 30.6078 41.7172 31.5172L41.6891 31.8594H40.9906H40.2969L40.3063 32.9234L40.3203 33.9922L40.625 34.025C41.7125 34.1328 42.7156 35.0141 42.9922 36.1016C43.0813 36.4578 43.0813 37.1047 42.9922 37.4609C42.7063 38.5578 41.7125 39.4297 40.625 39.5375L40.3203 39.5703L40.3063 40.6344L40.2969 41.7031H42.2422C43.3109 41.7031 44.1875 41.7078 44.1875 41.7172C44.1875 41.7266 44.1031 41.9703 44 42.2609C43.8453 42.6875 43.8125 42.8469 43.8125 43.1234C43.8125 43.6953 44.075 44.1219 44.5719 44.3703C44.8156 44.4969 44.9094 44.5156 45.2188 44.5156C45.5281 44.5156 45.6219 44.4969 45.8656 44.3703C46.3625 44.1219 46.625 43.6953 46.625 43.1234C46.625 42.8469 46.5922 42.6875 46.4375 42.2609C46.3344 41.9703 46.25 41.7266 46.25 41.7172C46.25 41.7078 47.1266 41.7031 48.1953 41.7031H50.1406V41.0047V40.3109L50.4594 40.2875C51.5141 40.2078 52.4844 39.4437 52.8688 38.3937C52.9906 38.0516 53.0375 37.2641 52.9531 36.8797C52.7094 35.7359 51.6219 34.7703 50.4828 34.6859L50.1406 34.6578V33.2609V31.8594H48.7391H47.3422L47.3141 31.5172C47.225 30.3969 46.3438 29.3656 45.2188 29.0703C44.9328 28.9953 44.1313 28.9859 43.8359 29.0516Z" fill="#14B8A6"/>
<path d="M38.3984 31.9156C36.4578 32.1312 34.475 32.9609 32.9188 34.2031C31.1422 35.6187 29.825 37.6531 29.2812 39.8234C29.1313 40.4094 29 41.2109 29 41.5156V41.7031H30.1016H31.2031V41.4734C31.2031 41.1453 31.4 40.5594 31.625 40.2172C31.8406 39.8891 32.2625 39.4812 32.5719 39.2984C33.4484 38.7875 34.6156 38.8109 35.4547 39.3594C36.1906 39.8422 36.7344 40.7562 36.7344 41.5016V41.7031H37.8125H38.8906V39.7578C38.8906 38.6891 38.8953 37.8125 38.9047 37.8125C38.9141 37.8125 39.1625 37.8969 39.4578 38.0047C39.9453 38.1781 40.025 38.1969 40.3438 38.1781C40.8969 38.1453 41.3469 37.8547 41.5813 37.3766C41.7359 37.0719 41.75 36.5375 41.6141 36.2375C41.4781 35.9375 41.1969 35.6562 40.8828 35.5062C40.4609 35.3094 40.1234 35.3234 39.4484 35.5625C39.1578 35.6656 38.9141 35.75 38.9047 35.75C38.8953 35.75 38.8906 34.8734 38.8906 33.8047C38.8906 32.2766 38.8766 31.8594 38.8344 31.8641C38.8016 31.8687 38.6047 31.8922 38.3984 31.9156Z" fill="#14B8A6"/>
<path d="M33.3219 40.4422C32.825 40.6906 32.5625 41.1172 32.5625 41.6891C32.5625 41.9656 32.5953 42.125 32.75 42.5516C32.8531 42.8422 32.9375 43.0859 32.9375 43.0953C32.9375 43.1047 32.0516 43.1094 30.9688 43.1094H29V43.2969C29 43.4 29.0328 43.7 29.0703 43.9672C29.5297 47.0141 31.3391 49.7609 33.9922 51.4297C34.8406 51.9641 35.9609 52.4516 36.9219 52.7C37.4469 52.8359 38.4078 53 38.6938 53H38.8906L38.8813 51.9078L38.8672 50.8203L38.5625 50.7875C37.4797 50.6797 36.4719 49.7937 36.1953 48.7109C36.0922 48.3031 36.1016 47.6422 36.2234 47.2531C36.5469 46.1937 37.5078 45.3781 38.5625 45.275L38.8672 45.2422L38.8813 44.1734L38.8906 43.1094H36.9453C35.8766 43.1094 35 43.1047 35 43.0953C35 43.0859 35.0844 42.8422 35.1875 42.5516C35.4359 41.8578 35.4453 41.4875 35.2297 41.0562C34.9813 40.55 34.5594 40.2969 33.9641 40.2969C33.6594 40.2969 33.5656 40.3156 33.3219 40.4422Z" fill="#14B8A6"/>
<path d="M40.2969 45.0547C40.2969 46.1234 40.2922 47 40.2828 47C40.2734 47 40.0297 46.9156 39.7391 46.8125C39.0641 46.5734 38.7266 46.5594 38.3047 46.7562C37.7703 47.0141 37.4844 47.45 37.4844 48.0312C37.4844 48.6125 37.7703 49.0484 38.3047 49.3062C38.7266 49.5031 39.0641 49.4891 39.7391 49.25C40.0297 49.1469 40.2734 49.0625 40.2828 49.0625C40.2922 49.0625 40.2969 49.9484 40.2969 51.0312V53H40.4984C40.7797 53 41.7406 52.8359 42.2844 52.6953C44.0516 52.2359 45.8703 51.1625 47.1453 49.8266C48.8469 48.0453 49.8594 45.8281 50.1125 43.3531L50.1359 43.1094H49.0625H47.9844V43.3109C47.9844 44.0562 47.4359 44.9703 46.7047 45.4531C45.8656 46.0016 44.6984 46.025 43.8219 45.5141C43.5125 45.3312 43.0906 44.9234 42.875 44.5953C42.65 44.2531 42.4531 43.6672 42.4531 43.3391V43.1094H41.375H40.2969V45.0547Z" fill="#14B8A6"/>
</svg>
